%TF.GenerationSoftware,KiCad,Pcbnew,9.0.4*%
%TF.CreationDate,2025-11-19T21:42:55-07:00*%
%TF.ProjectId,Subsystem_Schematic_Design_Lia_Ryan_EGR304_Team_202,53756273-7973-4746-956d-5f536368656d,rev?*%
%TF.SameCoordinates,Original*%
%TF.FileFunction,Soldermask,Bot*%
%TF.FilePolarity,Negative*%
%FSLAX46Y46*%
G04 Gerber Fmt 4.6, Leading zero omitted, Abs format (unit mm)*
G04 Created by KiCad (PCBNEW 9.0.4) date 2025-11-19 21:42:55*
%MOMM*%
%LPD*%
G01*
G04 APERTURE LIST*
G04 Aperture macros list*
%AMRoundRect*
0 Rectangle with rounded corners*
0 $1 Rounding radius*
0 $2 $3 $4 $5 $6 $7 $8 $9 X,Y pos of 4 corners*
0 Add a 4 corners polygon primitive as box body*
4,1,4,$2,$3,$4,$5,$6,$7,$8,$9,$2,$3,0*
0 Add four circle primitives for the rounded corners*
1,1,$1+$1,$2,$3*
1,1,$1+$1,$4,$5*
1,1,$1+$1,$6,$7*
1,1,$1+$1,$8,$9*
0 Add four rect primitives between the rounded corners*
20,1,$1+$1,$2,$3,$4,$5,0*
20,1,$1+$1,$4,$5,$6,$7,0*
20,1,$1+$1,$6,$7,$8,$9,0*
20,1,$1+$1,$8,$9,$2,$3,0*%
G04 Aperture macros list end*
%ADD10C,2.000000*%
%ADD11R,2.000000X2.000000*%
%ADD12C,1.600000*%
%ADD13RoundRect,0.250001X1.149999X-1.149999X1.149999X1.149999X-1.149999X1.149999X-1.149999X-1.149999X0*%
%ADD14C,2.800000*%
%ADD15R,1.800000X1.800000*%
%ADD16C,1.800000*%
%ADD17RoundRect,0.250001X1.149999X1.149999X-1.149999X1.149999X-1.149999X-1.149999X1.149999X-1.149999X0*%
%ADD18R,4.000000X2.000000*%
%ADD19O,4.000000X2.000000*%
%ADD20R,2.600000X2.600000*%
%ADD21C,2.600000*%
%ADD22C,2.700000*%
%ADD23C,3.000000*%
%ADD24R,3.000000X3.000000*%
G04 APERTURE END LIST*
D10*
%TO.C,U4*%
X98380000Y-126040000D03*
X98380000Y-123500000D03*
X100920000Y-126040000D03*
X100920000Y-123500000D03*
X103460000Y-126040000D03*
X103460000Y-123500000D03*
X106000000Y-126040000D03*
D11*
X106000000Y-123500000D03*
%TD*%
D12*
%TO.C,C2*%
X111000000Y-59000000D03*
X111000000Y-54000000D03*
%TD*%
D13*
%TO.C,Q2*%
X181967500Y-105750000D03*
D14*
X181967500Y-100750000D03*
%TD*%
D10*
%TO.C,JP1*%
X113730000Y-140000000D03*
X116270000Y-140000000D03*
%TD*%
D12*
%TO.C,R12*%
X148500000Y-74850000D03*
X148500000Y-62150000D03*
%TD*%
D10*
%TO.C,JP20*%
X108270000Y-118500000D03*
X105730000Y-118500000D03*
%TD*%
%TO.C,TP2*%
X172730000Y-116000000D03*
X175270000Y-116000000D03*
%TD*%
D12*
%TO.C,R8*%
X183000000Y-134650000D03*
X183000000Y-147350000D03*
%TD*%
D13*
%TO.C,J2*%
X180967500Y-71750000D03*
D14*
X180967500Y-66750000D03*
%TD*%
D12*
%TO.C,R1*%
X154500000Y-75850000D03*
X154500000Y-63150000D03*
%TD*%
%TO.C,R9*%
X177500000Y-134650000D03*
X177500000Y-147350000D03*
%TD*%
D15*
%TO.C,D4*%
X149500000Y-55460000D03*
D16*
X149500000Y-58000000D03*
%TD*%
D10*
%TO.C,JP23*%
X113230000Y-109500000D03*
X115770000Y-109500000D03*
%TD*%
%TO.C,JP13*%
X107230000Y-131500000D03*
X109770000Y-131500000D03*
%TD*%
%TO.C,JP22*%
X113230000Y-112500000D03*
X115770000Y-112500000D03*
%TD*%
%TO.C,SW1*%
X134250000Y-53750000D03*
X140750000Y-53750000D03*
X134250000Y-58250000D03*
X140750000Y-58250000D03*
%TD*%
D12*
%TO.C,R2*%
X163650000Y-80500000D03*
X176350000Y-80500000D03*
%TD*%
D11*
%TO.C,U7*%
X152500000Y-118580000D03*
D10*
X152500000Y-116040000D03*
X152500000Y-113500000D03*
X152500000Y-110960000D03*
X152500000Y-108420000D03*
%TD*%
%TO.C,JP24*%
X108230000Y-115500000D03*
X110770000Y-115500000D03*
%TD*%
D11*
%TO.C,U3*%
X106000000Y-107747500D03*
D10*
X106000000Y-110287500D03*
X103460000Y-107747500D03*
X103460000Y-110287500D03*
X100920000Y-107747500D03*
X100920000Y-110287500D03*
X98380000Y-107747500D03*
X98380000Y-110287500D03*
%TD*%
%TO.C,JP18*%
X92230000Y-118500000D03*
X94770000Y-118500000D03*
%TD*%
D12*
%TO.C,R10*%
X167000000Y-76350000D03*
X167000000Y-63650000D03*
%TD*%
D17*
%TO.C,J4*%
X164000000Y-57500000D03*
D14*
X159000000Y-57500000D03*
%TD*%
D10*
%TO.C,TP1*%
X131770000Y-138000000D03*
X129230000Y-138000000D03*
%TD*%
%TO.C,JP2*%
X103500000Y-95230000D03*
X103500000Y-97770000D03*
%TD*%
%TO.C,JP9*%
X109230000Y-148000000D03*
X111770000Y-148000000D03*
%TD*%
D12*
%TO.C,R7*%
X184000000Y-115500000D03*
X184000000Y-128200000D03*
%TD*%
D18*
%TO.C,U2*%
X142120000Y-131290000D03*
D19*
X142120000Y-128750000D03*
X142120000Y-126210000D03*
X142120000Y-123670000D03*
X142120000Y-121130000D03*
X142120000Y-118590000D03*
X142120000Y-116050000D03*
X142120000Y-113510000D03*
X142120000Y-110970000D03*
X142120000Y-108430000D03*
X142120000Y-105890000D03*
X142120000Y-103350000D03*
X142120000Y-100810000D03*
X142120000Y-98270000D03*
X142120000Y-95730000D03*
X142120000Y-93190000D03*
X142120000Y-90650000D03*
X142120000Y-88110000D03*
X142120000Y-85570000D03*
X142120000Y-83030000D03*
X142120000Y-80490000D03*
X142120000Y-77950000D03*
X142120000Y-75410000D03*
X142120000Y-72870000D03*
X142120000Y-70330000D03*
X142120000Y-67790000D03*
X142120000Y-65250000D03*
X142120000Y-62710000D03*
X126880000Y-62710000D03*
X126880000Y-65250000D03*
X126880000Y-67790000D03*
X126880000Y-70330000D03*
X126880000Y-72870000D03*
X126880000Y-75410000D03*
X126880000Y-77950000D03*
X126880000Y-80490000D03*
X126880000Y-83030000D03*
X126880000Y-85570000D03*
X126880000Y-88110000D03*
X126880000Y-90650000D03*
X126880000Y-93190000D03*
X126880000Y-95730000D03*
X126880000Y-98270000D03*
X126880000Y-100810000D03*
X126880000Y-103350000D03*
X126880000Y-105890000D03*
X126880000Y-108430000D03*
X126880000Y-110970000D03*
X126880000Y-113510000D03*
X126880000Y-116050000D03*
X126880000Y-118590000D03*
X126880000Y-121130000D03*
X126880000Y-123670000D03*
X126880000Y-126210000D03*
X126880000Y-128750000D03*
X126880000Y-131290000D03*
%TD*%
D10*
%TO.C,JP17*%
X100270000Y-131500000D03*
X97730000Y-131500000D03*
%TD*%
D20*
%TO.C,J1*%
X105700000Y-61750000D03*
D21*
X99700000Y-61750000D03*
X102700000Y-66450000D03*
%TD*%
D15*
%TO.C,U1*%
X113000000Y-75540000D03*
D16*
X113000000Y-73000000D03*
X113000000Y-70460000D03*
%TD*%
D10*
%TO.C,JP28*%
X115770000Y-106500000D03*
X113230000Y-106500000D03*
%TD*%
%TO.C,JP8*%
X106500000Y-83770000D03*
X106500000Y-81230000D03*
%TD*%
%TO.C,JP5*%
X119000000Y-145770000D03*
X119000000Y-143230000D03*
%TD*%
%TO.C,JP12*%
X102730000Y-148000000D03*
X105270000Y-148000000D03*
%TD*%
%TO.C,JP11*%
X116270000Y-134500000D03*
X113730000Y-134500000D03*
%TD*%
D12*
%TO.C,R6*%
X170500000Y-147350000D03*
X170500000Y-134650000D03*
%TD*%
D15*
%TO.C,U6*%
X163120000Y-136050000D03*
D16*
X160580000Y-136050000D03*
X158040000Y-136050000D03*
X155500000Y-136050000D03*
X152960000Y-136050000D03*
X150420000Y-136050000D03*
X147880000Y-136050000D03*
X147880000Y-146950000D03*
X150420000Y-146950000D03*
X152960000Y-146950000D03*
X155500000Y-146950000D03*
X158040000Y-146950000D03*
X160580000Y-146950000D03*
X163120000Y-146950000D03*
%TD*%
D10*
%TO.C,JP16*%
X113230000Y-127000000D03*
X115770000Y-127000000D03*
%TD*%
%TO.C,TP3*%
X105730000Y-91500000D03*
X108270000Y-91500000D03*
%TD*%
%TO.C,JP25*%
X92230000Y-102000000D03*
X94770000Y-102000000D03*
%TD*%
D12*
%TO.C,C3*%
X128500000Y-145500000D03*
X123500000Y-145500000D03*
%TD*%
%TO.C,R4*%
X149000000Y-119650000D03*
X149000000Y-132350000D03*
%TD*%
D10*
%TO.C,JP7*%
X155500000Y-132270000D03*
X155500000Y-129730000D03*
%TD*%
%TO.C,JP21*%
X115770000Y-123500000D03*
X113230000Y-123500000D03*
%TD*%
%TO.C,JP26*%
X99230000Y-102500000D03*
X101770000Y-102500000D03*
%TD*%
%TO.C,TP5*%
X175730000Y-129500000D03*
X178270000Y-129500000D03*
%TD*%
D12*
%TO.C,C1*%
X112000000Y-85000000D03*
X112000000Y-80000000D03*
%TD*%
D17*
%TO.C,J3*%
X180250000Y-57532500D03*
D14*
X175250000Y-57532500D03*
%TD*%
D22*
%TO.C,F2*%
X97000000Y-81250000D03*
D23*
X97000000Y-70000000D03*
X97000000Y-92500000D03*
%TD*%
D12*
%TO.C,R14*%
X121000000Y-65150000D03*
X121000000Y-77850000D03*
%TD*%
D10*
%TO.C,JP15*%
X93000000Y-132230000D03*
X93000000Y-134770000D03*
%TD*%
D12*
%TO.C,C4*%
X180000000Y-112000000D03*
X185000000Y-112000000D03*
%TD*%
D13*
%TO.C,D1*%
X181967500Y-85750000D03*
D14*
X181967500Y-80750000D03*
%TD*%
D10*
%TO.C,JP27*%
X107770000Y-102500000D03*
X105230000Y-102500000D03*
%TD*%
D11*
%TO.C,U5*%
X106500000Y-140000000D03*
D10*
X106500000Y-142540000D03*
X103960000Y-140000000D03*
X103960000Y-142540000D03*
X101420000Y-140000000D03*
X101420000Y-142540000D03*
X98880000Y-140000000D03*
X98880000Y-142540000D03*
%TD*%
D12*
%TO.C,C5*%
X126000000Y-59000000D03*
X131000000Y-59000000D03*
%TD*%
%TO.C,R5*%
X131650000Y-143500000D03*
X144350000Y-143500000D03*
%TD*%
D10*
%TO.C,JP3*%
X111000000Y-66270000D03*
X111000000Y-63730000D03*
%TD*%
D11*
%TO.C,U8*%
X158500000Y-118620000D03*
D10*
X158500000Y-116080000D03*
X158500000Y-113540000D03*
X158500000Y-111000000D03*
X158500000Y-108460000D03*
%TD*%
D12*
%TO.C,R11*%
X161000000Y-77350000D03*
X161000000Y-64650000D03*
%TD*%
D10*
%TO.C,JP4*%
X106500000Y-75270000D03*
X106500000Y-72730000D03*
%TD*%
%TO.C,TP4*%
X161730000Y-87000000D03*
X164270000Y-87000000D03*
%TD*%
D12*
%TO.C,R3*%
X168500000Y-115150000D03*
X168500000Y-127850000D03*
%TD*%
D10*
%TO.C,TP6*%
X173230000Y-111000000D03*
X175770000Y-111000000D03*
%TD*%
D12*
%TO.C,R13*%
X129350000Y-55000000D03*
X116650000Y-55000000D03*
%TD*%
D10*
%TO.C,JP19*%
X99230000Y-118500000D03*
X101770000Y-118500000D03*
%TD*%
D24*
%TO.C,RV1*%
X168000000Y-92500000D03*
D23*
X168000000Y-97500000D03*
X168000000Y-102500000D03*
%TD*%
D10*
%TO.C,JP6*%
X121500000Y-133730000D03*
X121500000Y-136270000D03*
%TD*%
%TO.C,JP14*%
X99770000Y-135000000D03*
X97230000Y-135000000D03*
%TD*%
%TO.C,JP10*%
X116270000Y-137000000D03*
X113730000Y-137000000D03*
%TD*%
M02*
