%TF.GenerationSoftware,KiCad,Pcbnew,9.0.4*%
%TF.CreationDate,2025-11-19T21:42:55-07:00*%
%TF.ProjectId,Subsystem_Schematic_Design_Lia_Ryan_EGR304_Team_202,53756273-7973-4746-956d-5f536368656d,rev?*%
%TF.SameCoordinates,Original*%
%TF.FileFunction,Legend,Top*%
%TF.FilePolarity,Positive*%
%FSLAX46Y46*%
G04 Gerber Fmt 4.6, Leading zero omitted, Abs format (unit mm)*
G04 Created by KiCad (PCBNEW 9.0.4) date 2025-11-19 21:42:55*
%MOMM*%
%LPD*%
G01*
G04 APERTURE LIST*
%ADD10C,0.150000*%
%ADD11C,0.120000*%
G04 APERTURE END LIST*
D10*
X111554819Y-125531904D02*
X112364342Y-125531904D01*
X112364342Y-125531904D02*
X112459580Y-125484285D01*
X112459580Y-125484285D02*
X112507200Y-125436666D01*
X112507200Y-125436666D02*
X112554819Y-125341428D01*
X112554819Y-125341428D02*
X112554819Y-125150952D01*
X112554819Y-125150952D02*
X112507200Y-125055714D01*
X112507200Y-125055714D02*
X112459580Y-125008095D01*
X112459580Y-125008095D02*
X112364342Y-124960476D01*
X112364342Y-124960476D02*
X111554819Y-124960476D01*
X111888152Y-124055714D02*
X112554819Y-124055714D01*
X111507200Y-124293809D02*
X112221485Y-124531904D01*
X112221485Y-124531904D02*
X112221485Y-123912857D01*
X108509580Y-56666666D02*
X108557200Y-56714285D01*
X108557200Y-56714285D02*
X108604819Y-56857142D01*
X108604819Y-56857142D02*
X108604819Y-56952380D01*
X108604819Y-56952380D02*
X108557200Y-57095237D01*
X108557200Y-57095237D02*
X108461961Y-57190475D01*
X108461961Y-57190475D02*
X108366723Y-57238094D01*
X108366723Y-57238094D02*
X108176247Y-57285713D01*
X108176247Y-57285713D02*
X108033390Y-57285713D01*
X108033390Y-57285713D02*
X107842914Y-57238094D01*
X107842914Y-57238094D02*
X107747676Y-57190475D01*
X107747676Y-57190475D02*
X107652438Y-57095237D01*
X107652438Y-57095237D02*
X107604819Y-56952380D01*
X107604819Y-56952380D02*
X107604819Y-56857142D01*
X107604819Y-56857142D02*
X107652438Y-56714285D01*
X107652438Y-56714285D02*
X107700057Y-56666666D01*
X107700057Y-56285713D02*
X107652438Y-56238094D01*
X107652438Y-56238094D02*
X107604819Y-56142856D01*
X107604819Y-56142856D02*
X107604819Y-55904761D01*
X107604819Y-55904761D02*
X107652438Y-55809523D01*
X107652438Y-55809523D02*
X107700057Y-55761904D01*
X107700057Y-55761904D02*
X107795295Y-55714285D01*
X107795295Y-55714285D02*
X107890533Y-55714285D01*
X107890533Y-55714285D02*
X108033390Y-55761904D01*
X108033390Y-55761904D02*
X108604819Y-56333332D01*
X108604819Y-56333332D02*
X108604819Y-55714285D01*
X177397557Y-103595238D02*
X177349938Y-103690476D01*
X177349938Y-103690476D02*
X177254700Y-103785714D01*
X177254700Y-103785714D02*
X177111842Y-103928571D01*
X177111842Y-103928571D02*
X177064223Y-104023809D01*
X177064223Y-104023809D02*
X177064223Y-104119047D01*
X177302319Y-104071428D02*
X177254700Y-104166666D01*
X177254700Y-104166666D02*
X177159461Y-104261904D01*
X177159461Y-104261904D02*
X176968985Y-104309523D01*
X176968985Y-104309523D02*
X176635652Y-104309523D01*
X176635652Y-104309523D02*
X176445176Y-104261904D01*
X176445176Y-104261904D02*
X176349938Y-104166666D01*
X176349938Y-104166666D02*
X176302319Y-104071428D01*
X176302319Y-104071428D02*
X176302319Y-103880952D01*
X176302319Y-103880952D02*
X176349938Y-103785714D01*
X176349938Y-103785714D02*
X176445176Y-103690476D01*
X176445176Y-103690476D02*
X176635652Y-103642857D01*
X176635652Y-103642857D02*
X176968985Y-103642857D01*
X176968985Y-103642857D02*
X177159461Y-103690476D01*
X177159461Y-103690476D02*
X177254700Y-103785714D01*
X177254700Y-103785714D02*
X177302319Y-103880952D01*
X177302319Y-103880952D02*
X177302319Y-104071428D01*
X176397557Y-103261904D02*
X176349938Y-103214285D01*
X176349938Y-103214285D02*
X176302319Y-103119047D01*
X176302319Y-103119047D02*
X176302319Y-102880952D01*
X176302319Y-102880952D02*
X176349938Y-102785714D01*
X176349938Y-102785714D02*
X176397557Y-102738095D01*
X176397557Y-102738095D02*
X176492795Y-102690476D01*
X176492795Y-102690476D02*
X176588033Y-102690476D01*
X176588033Y-102690476D02*
X176730890Y-102738095D01*
X176730890Y-102738095D02*
X177302319Y-103309523D01*
X177302319Y-103309523D02*
X177302319Y-102690476D01*
X114166666Y-141954819D02*
X114166666Y-142669104D01*
X114166666Y-142669104D02*
X114119047Y-142811961D01*
X114119047Y-142811961D02*
X114023809Y-142907200D01*
X114023809Y-142907200D02*
X113880952Y-142954819D01*
X113880952Y-142954819D02*
X113785714Y-142954819D01*
X114642857Y-142954819D02*
X114642857Y-141954819D01*
X114642857Y-141954819D02*
X115023809Y-141954819D01*
X115023809Y-141954819D02*
X115119047Y-142002438D01*
X115119047Y-142002438D02*
X115166666Y-142050057D01*
X115166666Y-142050057D02*
X115214285Y-142145295D01*
X115214285Y-142145295D02*
X115214285Y-142288152D01*
X115214285Y-142288152D02*
X115166666Y-142383390D01*
X115166666Y-142383390D02*
X115119047Y-142431009D01*
X115119047Y-142431009D02*
X115023809Y-142478628D01*
X115023809Y-142478628D02*
X114642857Y-142478628D01*
X116166666Y-142954819D02*
X115595238Y-142954819D01*
X115880952Y-142954819D02*
X115880952Y-141954819D01*
X115880952Y-141954819D02*
X115785714Y-142097676D01*
X115785714Y-142097676D02*
X115690476Y-142192914D01*
X115690476Y-142192914D02*
X115595238Y-142240533D01*
X146234819Y-69142857D02*
X145758628Y-69476190D01*
X146234819Y-69714285D02*
X145234819Y-69714285D01*
X145234819Y-69714285D02*
X145234819Y-69333333D01*
X145234819Y-69333333D02*
X145282438Y-69238095D01*
X145282438Y-69238095D02*
X145330057Y-69190476D01*
X145330057Y-69190476D02*
X145425295Y-69142857D01*
X145425295Y-69142857D02*
X145568152Y-69142857D01*
X145568152Y-69142857D02*
X145663390Y-69190476D01*
X145663390Y-69190476D02*
X145711009Y-69238095D01*
X145711009Y-69238095D02*
X145758628Y-69333333D01*
X145758628Y-69333333D02*
X145758628Y-69714285D01*
X146234819Y-68190476D02*
X146234819Y-68761904D01*
X146234819Y-68476190D02*
X145234819Y-68476190D01*
X145234819Y-68476190D02*
X145377676Y-68571428D01*
X145377676Y-68571428D02*
X145472914Y-68666666D01*
X145472914Y-68666666D02*
X145520533Y-68761904D01*
X145330057Y-67809523D02*
X145282438Y-67761904D01*
X145282438Y-67761904D02*
X145234819Y-67666666D01*
X145234819Y-67666666D02*
X145234819Y-67428571D01*
X145234819Y-67428571D02*
X145282438Y-67333333D01*
X145282438Y-67333333D02*
X145330057Y-67285714D01*
X145330057Y-67285714D02*
X145425295Y-67238095D01*
X145425295Y-67238095D02*
X145520533Y-67238095D01*
X145520533Y-67238095D02*
X145663390Y-67285714D01*
X145663390Y-67285714D02*
X146234819Y-67857142D01*
X146234819Y-67857142D02*
X146234819Y-67238095D01*
X105690476Y-115454819D02*
X105690476Y-116169104D01*
X105690476Y-116169104D02*
X105642857Y-116311961D01*
X105642857Y-116311961D02*
X105547619Y-116407200D01*
X105547619Y-116407200D02*
X105404762Y-116454819D01*
X105404762Y-116454819D02*
X105309524Y-116454819D01*
X106166667Y-116454819D02*
X106166667Y-115454819D01*
X106166667Y-115454819D02*
X106547619Y-115454819D01*
X106547619Y-115454819D02*
X106642857Y-115502438D01*
X106642857Y-115502438D02*
X106690476Y-115550057D01*
X106690476Y-115550057D02*
X106738095Y-115645295D01*
X106738095Y-115645295D02*
X106738095Y-115788152D01*
X106738095Y-115788152D02*
X106690476Y-115883390D01*
X106690476Y-115883390D02*
X106642857Y-115931009D01*
X106642857Y-115931009D02*
X106547619Y-115978628D01*
X106547619Y-115978628D02*
X106166667Y-115978628D01*
X107119048Y-115550057D02*
X107166667Y-115502438D01*
X107166667Y-115502438D02*
X107261905Y-115454819D01*
X107261905Y-115454819D02*
X107500000Y-115454819D01*
X107500000Y-115454819D02*
X107595238Y-115502438D01*
X107595238Y-115502438D02*
X107642857Y-115550057D01*
X107642857Y-115550057D02*
X107690476Y-115645295D01*
X107690476Y-115645295D02*
X107690476Y-115740533D01*
X107690476Y-115740533D02*
X107642857Y-115883390D01*
X107642857Y-115883390D02*
X107071429Y-116454819D01*
X107071429Y-116454819D02*
X107690476Y-116454819D01*
X108309524Y-115454819D02*
X108404762Y-115454819D01*
X108404762Y-115454819D02*
X108500000Y-115502438D01*
X108500000Y-115502438D02*
X108547619Y-115550057D01*
X108547619Y-115550057D02*
X108595238Y-115645295D01*
X108595238Y-115645295D02*
X108642857Y-115835771D01*
X108642857Y-115835771D02*
X108642857Y-116073866D01*
X108642857Y-116073866D02*
X108595238Y-116264342D01*
X108595238Y-116264342D02*
X108547619Y-116359580D01*
X108547619Y-116359580D02*
X108500000Y-116407200D01*
X108500000Y-116407200D02*
X108404762Y-116454819D01*
X108404762Y-116454819D02*
X108309524Y-116454819D01*
X108309524Y-116454819D02*
X108214286Y-116407200D01*
X108214286Y-116407200D02*
X108166667Y-116359580D01*
X108166667Y-116359580D02*
X108119048Y-116264342D01*
X108119048Y-116264342D02*
X108071429Y-116073866D01*
X108071429Y-116073866D02*
X108071429Y-115835771D01*
X108071429Y-115835771D02*
X108119048Y-115645295D01*
X108119048Y-115645295D02*
X108166667Y-115550057D01*
X108166667Y-115550057D02*
X108214286Y-115502438D01*
X108214286Y-115502438D02*
X108309524Y-115454819D01*
X172738095Y-117954819D02*
X173309523Y-117954819D01*
X173023809Y-118954819D02*
X173023809Y-117954819D01*
X173642857Y-118954819D02*
X173642857Y-117954819D01*
X173642857Y-117954819D02*
X174023809Y-117954819D01*
X174023809Y-117954819D02*
X174119047Y-118002438D01*
X174119047Y-118002438D02*
X174166666Y-118050057D01*
X174166666Y-118050057D02*
X174214285Y-118145295D01*
X174214285Y-118145295D02*
X174214285Y-118288152D01*
X174214285Y-118288152D02*
X174166666Y-118383390D01*
X174166666Y-118383390D02*
X174119047Y-118431009D01*
X174119047Y-118431009D02*
X174023809Y-118478628D01*
X174023809Y-118478628D02*
X173642857Y-118478628D01*
X174595238Y-118050057D02*
X174642857Y-118002438D01*
X174642857Y-118002438D02*
X174738095Y-117954819D01*
X174738095Y-117954819D02*
X174976190Y-117954819D01*
X174976190Y-117954819D02*
X175071428Y-118002438D01*
X175071428Y-118002438D02*
X175119047Y-118050057D01*
X175119047Y-118050057D02*
X175166666Y-118145295D01*
X175166666Y-118145295D02*
X175166666Y-118240533D01*
X175166666Y-118240533D02*
X175119047Y-118383390D01*
X175119047Y-118383390D02*
X174547619Y-118954819D01*
X174547619Y-118954819D02*
X175166666Y-118954819D01*
X186174819Y-141166666D02*
X185698628Y-141499999D01*
X186174819Y-141738094D02*
X185174819Y-141738094D01*
X185174819Y-141738094D02*
X185174819Y-141357142D01*
X185174819Y-141357142D02*
X185222438Y-141261904D01*
X185222438Y-141261904D02*
X185270057Y-141214285D01*
X185270057Y-141214285D02*
X185365295Y-141166666D01*
X185365295Y-141166666D02*
X185508152Y-141166666D01*
X185508152Y-141166666D02*
X185603390Y-141214285D01*
X185603390Y-141214285D02*
X185651009Y-141261904D01*
X185651009Y-141261904D02*
X185698628Y-141357142D01*
X185698628Y-141357142D02*
X185698628Y-141738094D01*
X185603390Y-140595237D02*
X185555771Y-140690475D01*
X185555771Y-140690475D02*
X185508152Y-140738094D01*
X185508152Y-140738094D02*
X185412914Y-140785713D01*
X185412914Y-140785713D02*
X185365295Y-140785713D01*
X185365295Y-140785713D02*
X185270057Y-140738094D01*
X185270057Y-140738094D02*
X185222438Y-140690475D01*
X185222438Y-140690475D02*
X185174819Y-140595237D01*
X185174819Y-140595237D02*
X185174819Y-140404761D01*
X185174819Y-140404761D02*
X185222438Y-140309523D01*
X185222438Y-140309523D02*
X185270057Y-140261904D01*
X185270057Y-140261904D02*
X185365295Y-140214285D01*
X185365295Y-140214285D02*
X185412914Y-140214285D01*
X185412914Y-140214285D02*
X185508152Y-140261904D01*
X185508152Y-140261904D02*
X185555771Y-140309523D01*
X185555771Y-140309523D02*
X185603390Y-140404761D01*
X185603390Y-140404761D02*
X185603390Y-140595237D01*
X185603390Y-140595237D02*
X185651009Y-140690475D01*
X185651009Y-140690475D02*
X185698628Y-140738094D01*
X185698628Y-140738094D02*
X185793866Y-140785713D01*
X185793866Y-140785713D02*
X185984342Y-140785713D01*
X185984342Y-140785713D02*
X186079580Y-140738094D01*
X186079580Y-140738094D02*
X186127200Y-140690475D01*
X186127200Y-140690475D02*
X186174819Y-140595237D01*
X186174819Y-140595237D02*
X186174819Y-140404761D01*
X186174819Y-140404761D02*
X186127200Y-140309523D01*
X186127200Y-140309523D02*
X186079580Y-140261904D01*
X186079580Y-140261904D02*
X185984342Y-140214285D01*
X185984342Y-140214285D02*
X185793866Y-140214285D01*
X185793866Y-140214285D02*
X185698628Y-140261904D01*
X185698628Y-140261904D02*
X185651009Y-140309523D01*
X185651009Y-140309523D02*
X185603390Y-140404761D01*
X175302319Y-69833333D02*
X176016604Y-69833333D01*
X176016604Y-69833333D02*
X176159461Y-69880952D01*
X176159461Y-69880952D02*
X176254700Y-69976190D01*
X176254700Y-69976190D02*
X176302319Y-70119047D01*
X176302319Y-70119047D02*
X176302319Y-70214285D01*
X175397557Y-69404761D02*
X175349938Y-69357142D01*
X175349938Y-69357142D02*
X175302319Y-69261904D01*
X175302319Y-69261904D02*
X175302319Y-69023809D01*
X175302319Y-69023809D02*
X175349938Y-68928571D01*
X175349938Y-68928571D02*
X175397557Y-68880952D01*
X175397557Y-68880952D02*
X175492795Y-68833333D01*
X175492795Y-68833333D02*
X175588033Y-68833333D01*
X175588033Y-68833333D02*
X175730890Y-68880952D01*
X175730890Y-68880952D02*
X176302319Y-69452380D01*
X176302319Y-69452380D02*
X176302319Y-68833333D01*
X152234819Y-69666666D02*
X151758628Y-69999999D01*
X152234819Y-70238094D02*
X151234819Y-70238094D01*
X151234819Y-70238094D02*
X151234819Y-69857142D01*
X151234819Y-69857142D02*
X151282438Y-69761904D01*
X151282438Y-69761904D02*
X151330057Y-69714285D01*
X151330057Y-69714285D02*
X151425295Y-69666666D01*
X151425295Y-69666666D02*
X151568152Y-69666666D01*
X151568152Y-69666666D02*
X151663390Y-69714285D01*
X151663390Y-69714285D02*
X151711009Y-69761904D01*
X151711009Y-69761904D02*
X151758628Y-69857142D01*
X151758628Y-69857142D02*
X151758628Y-70238094D01*
X152234819Y-68714285D02*
X152234819Y-69285713D01*
X152234819Y-68999999D02*
X151234819Y-68999999D01*
X151234819Y-68999999D02*
X151377676Y-69095237D01*
X151377676Y-69095237D02*
X151472914Y-69190475D01*
X151472914Y-69190475D02*
X151520533Y-69285713D01*
X180674819Y-141166666D02*
X180198628Y-141499999D01*
X180674819Y-141738094D02*
X179674819Y-141738094D01*
X179674819Y-141738094D02*
X179674819Y-141357142D01*
X179674819Y-141357142D02*
X179722438Y-141261904D01*
X179722438Y-141261904D02*
X179770057Y-141214285D01*
X179770057Y-141214285D02*
X179865295Y-141166666D01*
X179865295Y-141166666D02*
X180008152Y-141166666D01*
X180008152Y-141166666D02*
X180103390Y-141214285D01*
X180103390Y-141214285D02*
X180151009Y-141261904D01*
X180151009Y-141261904D02*
X180198628Y-141357142D01*
X180198628Y-141357142D02*
X180198628Y-141738094D01*
X180674819Y-140690475D02*
X180674819Y-140499999D01*
X180674819Y-140499999D02*
X180627200Y-140404761D01*
X180627200Y-140404761D02*
X180579580Y-140357142D01*
X180579580Y-140357142D02*
X180436723Y-140261904D01*
X180436723Y-140261904D02*
X180246247Y-140214285D01*
X180246247Y-140214285D02*
X179865295Y-140214285D01*
X179865295Y-140214285D02*
X179770057Y-140261904D01*
X179770057Y-140261904D02*
X179722438Y-140309523D01*
X179722438Y-140309523D02*
X179674819Y-140404761D01*
X179674819Y-140404761D02*
X179674819Y-140595237D01*
X179674819Y-140595237D02*
X179722438Y-140690475D01*
X179722438Y-140690475D02*
X179770057Y-140738094D01*
X179770057Y-140738094D02*
X179865295Y-140785713D01*
X179865295Y-140785713D02*
X180103390Y-140785713D01*
X180103390Y-140785713D02*
X180198628Y-140738094D01*
X180198628Y-140738094D02*
X180246247Y-140690475D01*
X180246247Y-140690475D02*
X180293866Y-140595237D01*
X180293866Y-140595237D02*
X180293866Y-140404761D01*
X180293866Y-140404761D02*
X180246247Y-140309523D01*
X180246247Y-140309523D02*
X180198628Y-140261904D01*
X180198628Y-140261904D02*
X180103390Y-140214285D01*
X153914819Y-57468094D02*
X152914819Y-57468094D01*
X152914819Y-57468094D02*
X152914819Y-57229999D01*
X152914819Y-57229999D02*
X152962438Y-57087142D01*
X152962438Y-57087142D02*
X153057676Y-56991904D01*
X153057676Y-56991904D02*
X153152914Y-56944285D01*
X153152914Y-56944285D02*
X153343390Y-56896666D01*
X153343390Y-56896666D02*
X153486247Y-56896666D01*
X153486247Y-56896666D02*
X153676723Y-56944285D01*
X153676723Y-56944285D02*
X153771961Y-56991904D01*
X153771961Y-56991904D02*
X153867200Y-57087142D01*
X153867200Y-57087142D02*
X153914819Y-57229999D01*
X153914819Y-57229999D02*
X153914819Y-57468094D01*
X153248152Y-56039523D02*
X153914819Y-56039523D01*
X152867200Y-56277618D02*
X153581485Y-56515713D01*
X153581485Y-56515713D02*
X153581485Y-55896666D01*
X113190476Y-111454819D02*
X113190476Y-112169104D01*
X113190476Y-112169104D02*
X113142857Y-112311961D01*
X113142857Y-112311961D02*
X113047619Y-112407200D01*
X113047619Y-112407200D02*
X112904762Y-112454819D01*
X112904762Y-112454819D02*
X112809524Y-112454819D01*
X113666667Y-112454819D02*
X113666667Y-111454819D01*
X113666667Y-111454819D02*
X114047619Y-111454819D01*
X114047619Y-111454819D02*
X114142857Y-111502438D01*
X114142857Y-111502438D02*
X114190476Y-111550057D01*
X114190476Y-111550057D02*
X114238095Y-111645295D01*
X114238095Y-111645295D02*
X114238095Y-111788152D01*
X114238095Y-111788152D02*
X114190476Y-111883390D01*
X114190476Y-111883390D02*
X114142857Y-111931009D01*
X114142857Y-111931009D02*
X114047619Y-111978628D01*
X114047619Y-111978628D02*
X113666667Y-111978628D01*
X114619048Y-111550057D02*
X114666667Y-111502438D01*
X114666667Y-111502438D02*
X114761905Y-111454819D01*
X114761905Y-111454819D02*
X115000000Y-111454819D01*
X115000000Y-111454819D02*
X115095238Y-111502438D01*
X115095238Y-111502438D02*
X115142857Y-111550057D01*
X115142857Y-111550057D02*
X115190476Y-111645295D01*
X115190476Y-111645295D02*
X115190476Y-111740533D01*
X115190476Y-111740533D02*
X115142857Y-111883390D01*
X115142857Y-111883390D02*
X114571429Y-112454819D01*
X114571429Y-112454819D02*
X115190476Y-112454819D01*
X115523810Y-111454819D02*
X116142857Y-111454819D01*
X116142857Y-111454819D02*
X115809524Y-111835771D01*
X115809524Y-111835771D02*
X115952381Y-111835771D01*
X115952381Y-111835771D02*
X116047619Y-111883390D01*
X116047619Y-111883390D02*
X116095238Y-111931009D01*
X116095238Y-111931009D02*
X116142857Y-112026247D01*
X116142857Y-112026247D02*
X116142857Y-112264342D01*
X116142857Y-112264342D02*
X116095238Y-112359580D01*
X116095238Y-112359580D02*
X116047619Y-112407200D01*
X116047619Y-112407200D02*
X115952381Y-112454819D01*
X115952381Y-112454819D02*
X115666667Y-112454819D01*
X115666667Y-112454819D02*
X115571429Y-112407200D01*
X115571429Y-112407200D02*
X115523810Y-112359580D01*
X107190476Y-133454819D02*
X107190476Y-134169104D01*
X107190476Y-134169104D02*
X107142857Y-134311961D01*
X107142857Y-134311961D02*
X107047619Y-134407200D01*
X107047619Y-134407200D02*
X106904762Y-134454819D01*
X106904762Y-134454819D02*
X106809524Y-134454819D01*
X107666667Y-134454819D02*
X107666667Y-133454819D01*
X107666667Y-133454819D02*
X108047619Y-133454819D01*
X108047619Y-133454819D02*
X108142857Y-133502438D01*
X108142857Y-133502438D02*
X108190476Y-133550057D01*
X108190476Y-133550057D02*
X108238095Y-133645295D01*
X108238095Y-133645295D02*
X108238095Y-133788152D01*
X108238095Y-133788152D02*
X108190476Y-133883390D01*
X108190476Y-133883390D02*
X108142857Y-133931009D01*
X108142857Y-133931009D02*
X108047619Y-133978628D01*
X108047619Y-133978628D02*
X107666667Y-133978628D01*
X109190476Y-134454819D02*
X108619048Y-134454819D01*
X108904762Y-134454819D02*
X108904762Y-133454819D01*
X108904762Y-133454819D02*
X108809524Y-133597676D01*
X108809524Y-133597676D02*
X108714286Y-133692914D01*
X108714286Y-133692914D02*
X108619048Y-133740533D01*
X109523810Y-133454819D02*
X110142857Y-133454819D01*
X110142857Y-133454819D02*
X109809524Y-133835771D01*
X109809524Y-133835771D02*
X109952381Y-133835771D01*
X109952381Y-133835771D02*
X110047619Y-133883390D01*
X110047619Y-133883390D02*
X110095238Y-133931009D01*
X110095238Y-133931009D02*
X110142857Y-134026247D01*
X110142857Y-134026247D02*
X110142857Y-134264342D01*
X110142857Y-134264342D02*
X110095238Y-134359580D01*
X110095238Y-134359580D02*
X110047619Y-134407200D01*
X110047619Y-134407200D02*
X109952381Y-134454819D01*
X109952381Y-134454819D02*
X109666667Y-134454819D01*
X109666667Y-134454819D02*
X109571429Y-134407200D01*
X109571429Y-134407200D02*
X109523810Y-134359580D01*
X113190476Y-114454819D02*
X113190476Y-115169104D01*
X113190476Y-115169104D02*
X113142857Y-115311961D01*
X113142857Y-115311961D02*
X113047619Y-115407200D01*
X113047619Y-115407200D02*
X112904762Y-115454819D01*
X112904762Y-115454819D02*
X112809524Y-115454819D01*
X113666667Y-115454819D02*
X113666667Y-114454819D01*
X113666667Y-114454819D02*
X114047619Y-114454819D01*
X114047619Y-114454819D02*
X114142857Y-114502438D01*
X114142857Y-114502438D02*
X114190476Y-114550057D01*
X114190476Y-114550057D02*
X114238095Y-114645295D01*
X114238095Y-114645295D02*
X114238095Y-114788152D01*
X114238095Y-114788152D02*
X114190476Y-114883390D01*
X114190476Y-114883390D02*
X114142857Y-114931009D01*
X114142857Y-114931009D02*
X114047619Y-114978628D01*
X114047619Y-114978628D02*
X113666667Y-114978628D01*
X114619048Y-114550057D02*
X114666667Y-114502438D01*
X114666667Y-114502438D02*
X114761905Y-114454819D01*
X114761905Y-114454819D02*
X115000000Y-114454819D01*
X115000000Y-114454819D02*
X115095238Y-114502438D01*
X115095238Y-114502438D02*
X115142857Y-114550057D01*
X115142857Y-114550057D02*
X115190476Y-114645295D01*
X115190476Y-114645295D02*
X115190476Y-114740533D01*
X115190476Y-114740533D02*
X115142857Y-114883390D01*
X115142857Y-114883390D02*
X114571429Y-115454819D01*
X114571429Y-115454819D02*
X115190476Y-115454819D01*
X115571429Y-114550057D02*
X115619048Y-114502438D01*
X115619048Y-114502438D02*
X115714286Y-114454819D01*
X115714286Y-114454819D02*
X115952381Y-114454819D01*
X115952381Y-114454819D02*
X116047619Y-114502438D01*
X116047619Y-114502438D02*
X116095238Y-114550057D01*
X116095238Y-114550057D02*
X116142857Y-114645295D01*
X116142857Y-114645295D02*
X116142857Y-114740533D01*
X116142857Y-114740533D02*
X116095238Y-114883390D01*
X116095238Y-114883390D02*
X115523810Y-115454819D01*
X115523810Y-115454819D02*
X116142857Y-115454819D01*
X136166667Y-52107200D02*
X136309524Y-52154819D01*
X136309524Y-52154819D02*
X136547619Y-52154819D01*
X136547619Y-52154819D02*
X136642857Y-52107200D01*
X136642857Y-52107200D02*
X136690476Y-52059580D01*
X136690476Y-52059580D02*
X136738095Y-51964342D01*
X136738095Y-51964342D02*
X136738095Y-51869104D01*
X136738095Y-51869104D02*
X136690476Y-51773866D01*
X136690476Y-51773866D02*
X136642857Y-51726247D01*
X136642857Y-51726247D02*
X136547619Y-51678628D01*
X136547619Y-51678628D02*
X136357143Y-51631009D01*
X136357143Y-51631009D02*
X136261905Y-51583390D01*
X136261905Y-51583390D02*
X136214286Y-51535771D01*
X136214286Y-51535771D02*
X136166667Y-51440533D01*
X136166667Y-51440533D02*
X136166667Y-51345295D01*
X136166667Y-51345295D02*
X136214286Y-51250057D01*
X136214286Y-51250057D02*
X136261905Y-51202438D01*
X136261905Y-51202438D02*
X136357143Y-51154819D01*
X136357143Y-51154819D02*
X136595238Y-51154819D01*
X136595238Y-51154819D02*
X136738095Y-51202438D01*
X137071429Y-51154819D02*
X137309524Y-52154819D01*
X137309524Y-52154819D02*
X137500000Y-51440533D01*
X137500000Y-51440533D02*
X137690476Y-52154819D01*
X137690476Y-52154819D02*
X137928572Y-51154819D01*
X138833333Y-52154819D02*
X138261905Y-52154819D01*
X138547619Y-52154819D02*
X138547619Y-51154819D01*
X138547619Y-51154819D02*
X138452381Y-51297676D01*
X138452381Y-51297676D02*
X138357143Y-51392914D01*
X138357143Y-51392914D02*
X138261905Y-51440533D01*
X169833333Y-78234819D02*
X169500000Y-77758628D01*
X169261905Y-78234819D02*
X169261905Y-77234819D01*
X169261905Y-77234819D02*
X169642857Y-77234819D01*
X169642857Y-77234819D02*
X169738095Y-77282438D01*
X169738095Y-77282438D02*
X169785714Y-77330057D01*
X169785714Y-77330057D02*
X169833333Y-77425295D01*
X169833333Y-77425295D02*
X169833333Y-77568152D01*
X169833333Y-77568152D02*
X169785714Y-77663390D01*
X169785714Y-77663390D02*
X169738095Y-77711009D01*
X169738095Y-77711009D02*
X169642857Y-77758628D01*
X169642857Y-77758628D02*
X169261905Y-77758628D01*
X170214286Y-77330057D02*
X170261905Y-77282438D01*
X170261905Y-77282438D02*
X170357143Y-77234819D01*
X170357143Y-77234819D02*
X170595238Y-77234819D01*
X170595238Y-77234819D02*
X170690476Y-77282438D01*
X170690476Y-77282438D02*
X170738095Y-77330057D01*
X170738095Y-77330057D02*
X170785714Y-77425295D01*
X170785714Y-77425295D02*
X170785714Y-77520533D01*
X170785714Y-77520533D02*
X170738095Y-77663390D01*
X170738095Y-77663390D02*
X170166667Y-78234819D01*
X170166667Y-78234819D02*
X170785714Y-78234819D01*
X154454819Y-114261904D02*
X155264342Y-114261904D01*
X155264342Y-114261904D02*
X155359580Y-114214285D01*
X155359580Y-114214285D02*
X155407200Y-114166666D01*
X155407200Y-114166666D02*
X155454819Y-114071428D01*
X155454819Y-114071428D02*
X155454819Y-113880952D01*
X155454819Y-113880952D02*
X155407200Y-113785714D01*
X155407200Y-113785714D02*
X155359580Y-113738095D01*
X155359580Y-113738095D02*
X155264342Y-113690476D01*
X155264342Y-113690476D02*
X154454819Y-113690476D01*
X154454819Y-113309523D02*
X154454819Y-112642857D01*
X154454819Y-112642857D02*
X155454819Y-113071428D01*
X108190476Y-117454819D02*
X108190476Y-118169104D01*
X108190476Y-118169104D02*
X108142857Y-118311961D01*
X108142857Y-118311961D02*
X108047619Y-118407200D01*
X108047619Y-118407200D02*
X107904762Y-118454819D01*
X107904762Y-118454819D02*
X107809524Y-118454819D01*
X108666667Y-118454819D02*
X108666667Y-117454819D01*
X108666667Y-117454819D02*
X109047619Y-117454819D01*
X109047619Y-117454819D02*
X109142857Y-117502438D01*
X109142857Y-117502438D02*
X109190476Y-117550057D01*
X109190476Y-117550057D02*
X109238095Y-117645295D01*
X109238095Y-117645295D02*
X109238095Y-117788152D01*
X109238095Y-117788152D02*
X109190476Y-117883390D01*
X109190476Y-117883390D02*
X109142857Y-117931009D01*
X109142857Y-117931009D02*
X109047619Y-117978628D01*
X109047619Y-117978628D02*
X108666667Y-117978628D01*
X109619048Y-117550057D02*
X109666667Y-117502438D01*
X109666667Y-117502438D02*
X109761905Y-117454819D01*
X109761905Y-117454819D02*
X110000000Y-117454819D01*
X110000000Y-117454819D02*
X110095238Y-117502438D01*
X110095238Y-117502438D02*
X110142857Y-117550057D01*
X110142857Y-117550057D02*
X110190476Y-117645295D01*
X110190476Y-117645295D02*
X110190476Y-117740533D01*
X110190476Y-117740533D02*
X110142857Y-117883390D01*
X110142857Y-117883390D02*
X109571429Y-118454819D01*
X109571429Y-118454819D02*
X110190476Y-118454819D01*
X111047619Y-117788152D02*
X111047619Y-118454819D01*
X110809524Y-117407200D02*
X110571429Y-118121485D01*
X110571429Y-118121485D02*
X111190476Y-118121485D01*
X111554819Y-109779404D02*
X112364342Y-109779404D01*
X112364342Y-109779404D02*
X112459580Y-109731785D01*
X112459580Y-109731785D02*
X112507200Y-109684166D01*
X112507200Y-109684166D02*
X112554819Y-109588928D01*
X112554819Y-109588928D02*
X112554819Y-109398452D01*
X112554819Y-109398452D02*
X112507200Y-109303214D01*
X112507200Y-109303214D02*
X112459580Y-109255595D01*
X112459580Y-109255595D02*
X112364342Y-109207976D01*
X112364342Y-109207976D02*
X111554819Y-109207976D01*
X111554819Y-108827023D02*
X111554819Y-108207976D01*
X111554819Y-108207976D02*
X111935771Y-108541309D01*
X111935771Y-108541309D02*
X111935771Y-108398452D01*
X111935771Y-108398452D02*
X111983390Y-108303214D01*
X111983390Y-108303214D02*
X112031009Y-108255595D01*
X112031009Y-108255595D02*
X112126247Y-108207976D01*
X112126247Y-108207976D02*
X112364342Y-108207976D01*
X112364342Y-108207976D02*
X112459580Y-108255595D01*
X112459580Y-108255595D02*
X112507200Y-108303214D01*
X112507200Y-108303214D02*
X112554819Y-108398452D01*
X112554819Y-108398452D02*
X112554819Y-108684166D01*
X112554819Y-108684166D02*
X112507200Y-108779404D01*
X112507200Y-108779404D02*
X112459580Y-108827023D01*
X92190476Y-120454819D02*
X92190476Y-121169104D01*
X92190476Y-121169104D02*
X92142857Y-121311961D01*
X92142857Y-121311961D02*
X92047619Y-121407200D01*
X92047619Y-121407200D02*
X91904762Y-121454819D01*
X91904762Y-121454819D02*
X91809524Y-121454819D01*
X92666667Y-121454819D02*
X92666667Y-120454819D01*
X92666667Y-120454819D02*
X93047619Y-120454819D01*
X93047619Y-120454819D02*
X93142857Y-120502438D01*
X93142857Y-120502438D02*
X93190476Y-120550057D01*
X93190476Y-120550057D02*
X93238095Y-120645295D01*
X93238095Y-120645295D02*
X93238095Y-120788152D01*
X93238095Y-120788152D02*
X93190476Y-120883390D01*
X93190476Y-120883390D02*
X93142857Y-120931009D01*
X93142857Y-120931009D02*
X93047619Y-120978628D01*
X93047619Y-120978628D02*
X92666667Y-120978628D01*
X94190476Y-121454819D02*
X93619048Y-121454819D01*
X93904762Y-121454819D02*
X93904762Y-120454819D01*
X93904762Y-120454819D02*
X93809524Y-120597676D01*
X93809524Y-120597676D02*
X93714286Y-120692914D01*
X93714286Y-120692914D02*
X93619048Y-120740533D01*
X94761905Y-120883390D02*
X94666667Y-120835771D01*
X94666667Y-120835771D02*
X94619048Y-120788152D01*
X94619048Y-120788152D02*
X94571429Y-120692914D01*
X94571429Y-120692914D02*
X94571429Y-120645295D01*
X94571429Y-120645295D02*
X94619048Y-120550057D01*
X94619048Y-120550057D02*
X94666667Y-120502438D01*
X94666667Y-120502438D02*
X94761905Y-120454819D01*
X94761905Y-120454819D02*
X94952381Y-120454819D01*
X94952381Y-120454819D02*
X95047619Y-120502438D01*
X95047619Y-120502438D02*
X95095238Y-120550057D01*
X95095238Y-120550057D02*
X95142857Y-120645295D01*
X95142857Y-120645295D02*
X95142857Y-120692914D01*
X95142857Y-120692914D02*
X95095238Y-120788152D01*
X95095238Y-120788152D02*
X95047619Y-120835771D01*
X95047619Y-120835771D02*
X94952381Y-120883390D01*
X94952381Y-120883390D02*
X94761905Y-120883390D01*
X94761905Y-120883390D02*
X94666667Y-120931009D01*
X94666667Y-120931009D02*
X94619048Y-120978628D01*
X94619048Y-120978628D02*
X94571429Y-121073866D01*
X94571429Y-121073866D02*
X94571429Y-121264342D01*
X94571429Y-121264342D02*
X94619048Y-121359580D01*
X94619048Y-121359580D02*
X94666667Y-121407200D01*
X94666667Y-121407200D02*
X94761905Y-121454819D01*
X94761905Y-121454819D02*
X94952381Y-121454819D01*
X94952381Y-121454819D02*
X95047619Y-121407200D01*
X95047619Y-121407200D02*
X95095238Y-121359580D01*
X95095238Y-121359580D02*
X95142857Y-121264342D01*
X95142857Y-121264342D02*
X95142857Y-121073866D01*
X95142857Y-121073866D02*
X95095238Y-120978628D01*
X95095238Y-120978628D02*
X95047619Y-120931009D01*
X95047619Y-120931009D02*
X94952381Y-120883390D01*
X164734819Y-70642857D02*
X164258628Y-70976190D01*
X164734819Y-71214285D02*
X163734819Y-71214285D01*
X163734819Y-71214285D02*
X163734819Y-70833333D01*
X163734819Y-70833333D02*
X163782438Y-70738095D01*
X163782438Y-70738095D02*
X163830057Y-70690476D01*
X163830057Y-70690476D02*
X163925295Y-70642857D01*
X163925295Y-70642857D02*
X164068152Y-70642857D01*
X164068152Y-70642857D02*
X164163390Y-70690476D01*
X164163390Y-70690476D02*
X164211009Y-70738095D01*
X164211009Y-70738095D02*
X164258628Y-70833333D01*
X164258628Y-70833333D02*
X164258628Y-71214285D01*
X164734819Y-69690476D02*
X164734819Y-70261904D01*
X164734819Y-69976190D02*
X163734819Y-69976190D01*
X163734819Y-69976190D02*
X163877676Y-70071428D01*
X163877676Y-70071428D02*
X163972914Y-70166666D01*
X163972914Y-70166666D02*
X164020533Y-70261904D01*
X163734819Y-69071428D02*
X163734819Y-68976190D01*
X163734819Y-68976190D02*
X163782438Y-68880952D01*
X163782438Y-68880952D02*
X163830057Y-68833333D01*
X163830057Y-68833333D02*
X163925295Y-68785714D01*
X163925295Y-68785714D02*
X164115771Y-68738095D01*
X164115771Y-68738095D02*
X164353866Y-68738095D01*
X164353866Y-68738095D02*
X164544342Y-68785714D01*
X164544342Y-68785714D02*
X164639580Y-68833333D01*
X164639580Y-68833333D02*
X164687200Y-68880952D01*
X164687200Y-68880952D02*
X164734819Y-68976190D01*
X164734819Y-68976190D02*
X164734819Y-69071428D01*
X164734819Y-69071428D02*
X164687200Y-69166666D01*
X164687200Y-69166666D02*
X164639580Y-69214285D01*
X164639580Y-69214285D02*
X164544342Y-69261904D01*
X164544342Y-69261904D02*
X164353866Y-69309523D01*
X164353866Y-69309523D02*
X164115771Y-69309523D01*
X164115771Y-69309523D02*
X163925295Y-69261904D01*
X163925295Y-69261904D02*
X163830057Y-69214285D01*
X163830057Y-69214285D02*
X163782438Y-69166666D01*
X163782438Y-69166666D02*
X163734819Y-69071428D01*
X161416666Y-62074819D02*
X161416666Y-62789104D01*
X161416666Y-62789104D02*
X161369047Y-62931961D01*
X161369047Y-62931961D02*
X161273809Y-63027200D01*
X161273809Y-63027200D02*
X161130952Y-63074819D01*
X161130952Y-63074819D02*
X161035714Y-63074819D01*
X162321428Y-62408152D02*
X162321428Y-63074819D01*
X162083333Y-62027200D02*
X161845238Y-62741485D01*
X161845238Y-62741485D02*
X162464285Y-62741485D01*
X129238095Y-134954819D02*
X129809523Y-134954819D01*
X129523809Y-135954819D02*
X129523809Y-134954819D01*
X130142857Y-135954819D02*
X130142857Y-134954819D01*
X130142857Y-134954819D02*
X130523809Y-134954819D01*
X130523809Y-134954819D02*
X130619047Y-135002438D01*
X130619047Y-135002438D02*
X130666666Y-135050057D01*
X130666666Y-135050057D02*
X130714285Y-135145295D01*
X130714285Y-135145295D02*
X130714285Y-135288152D01*
X130714285Y-135288152D02*
X130666666Y-135383390D01*
X130666666Y-135383390D02*
X130619047Y-135431009D01*
X130619047Y-135431009D02*
X130523809Y-135478628D01*
X130523809Y-135478628D02*
X130142857Y-135478628D01*
X131666666Y-135954819D02*
X131095238Y-135954819D01*
X131380952Y-135954819D02*
X131380952Y-134954819D01*
X131380952Y-134954819D02*
X131285714Y-135097676D01*
X131285714Y-135097676D02*
X131190476Y-135192914D01*
X131190476Y-135192914D02*
X131095238Y-135240533D01*
X100454819Y-97333333D02*
X101169104Y-97333333D01*
X101169104Y-97333333D02*
X101311961Y-97380952D01*
X101311961Y-97380952D02*
X101407200Y-97476190D01*
X101407200Y-97476190D02*
X101454819Y-97619047D01*
X101454819Y-97619047D02*
X101454819Y-97714285D01*
X101454819Y-96857142D02*
X100454819Y-96857142D01*
X100454819Y-96857142D02*
X100454819Y-96476190D01*
X100454819Y-96476190D02*
X100502438Y-96380952D01*
X100502438Y-96380952D02*
X100550057Y-96333333D01*
X100550057Y-96333333D02*
X100645295Y-96285714D01*
X100645295Y-96285714D02*
X100788152Y-96285714D01*
X100788152Y-96285714D02*
X100883390Y-96333333D01*
X100883390Y-96333333D02*
X100931009Y-96380952D01*
X100931009Y-96380952D02*
X100978628Y-96476190D01*
X100978628Y-96476190D02*
X100978628Y-96857142D01*
X100550057Y-95904761D02*
X100502438Y-95857142D01*
X100502438Y-95857142D02*
X100454819Y-95761904D01*
X100454819Y-95761904D02*
X100454819Y-95523809D01*
X100454819Y-95523809D02*
X100502438Y-95428571D01*
X100502438Y-95428571D02*
X100550057Y-95380952D01*
X100550057Y-95380952D02*
X100645295Y-95333333D01*
X100645295Y-95333333D02*
X100740533Y-95333333D01*
X100740533Y-95333333D02*
X100883390Y-95380952D01*
X100883390Y-95380952D02*
X101454819Y-95952380D01*
X101454819Y-95952380D02*
X101454819Y-95333333D01*
X109666666Y-149954819D02*
X109666666Y-150669104D01*
X109666666Y-150669104D02*
X109619047Y-150811961D01*
X109619047Y-150811961D02*
X109523809Y-150907200D01*
X109523809Y-150907200D02*
X109380952Y-150954819D01*
X109380952Y-150954819D02*
X109285714Y-150954819D01*
X110142857Y-150954819D02*
X110142857Y-149954819D01*
X110142857Y-149954819D02*
X110523809Y-149954819D01*
X110523809Y-149954819D02*
X110619047Y-150002438D01*
X110619047Y-150002438D02*
X110666666Y-150050057D01*
X110666666Y-150050057D02*
X110714285Y-150145295D01*
X110714285Y-150145295D02*
X110714285Y-150288152D01*
X110714285Y-150288152D02*
X110666666Y-150383390D01*
X110666666Y-150383390D02*
X110619047Y-150431009D01*
X110619047Y-150431009D02*
X110523809Y-150478628D01*
X110523809Y-150478628D02*
X110142857Y-150478628D01*
X111190476Y-150954819D02*
X111380952Y-150954819D01*
X111380952Y-150954819D02*
X111476190Y-150907200D01*
X111476190Y-150907200D02*
X111523809Y-150859580D01*
X111523809Y-150859580D02*
X111619047Y-150716723D01*
X111619047Y-150716723D02*
X111666666Y-150526247D01*
X111666666Y-150526247D02*
X111666666Y-150145295D01*
X111666666Y-150145295D02*
X111619047Y-150050057D01*
X111619047Y-150050057D02*
X111571428Y-150002438D01*
X111571428Y-150002438D02*
X111476190Y-149954819D01*
X111476190Y-149954819D02*
X111285714Y-149954819D01*
X111285714Y-149954819D02*
X111190476Y-150002438D01*
X111190476Y-150002438D02*
X111142857Y-150050057D01*
X111142857Y-150050057D02*
X111095238Y-150145295D01*
X111095238Y-150145295D02*
X111095238Y-150383390D01*
X111095238Y-150383390D02*
X111142857Y-150478628D01*
X111142857Y-150478628D02*
X111190476Y-150526247D01*
X111190476Y-150526247D02*
X111285714Y-150573866D01*
X111285714Y-150573866D02*
X111476190Y-150573866D01*
X111476190Y-150573866D02*
X111571428Y-150526247D01*
X111571428Y-150526247D02*
X111619047Y-150478628D01*
X111619047Y-150478628D02*
X111666666Y-150383390D01*
X187174819Y-122016666D02*
X186698628Y-122349999D01*
X187174819Y-122588094D02*
X186174819Y-122588094D01*
X186174819Y-122588094D02*
X186174819Y-122207142D01*
X186174819Y-122207142D02*
X186222438Y-122111904D01*
X186222438Y-122111904D02*
X186270057Y-122064285D01*
X186270057Y-122064285D02*
X186365295Y-122016666D01*
X186365295Y-122016666D02*
X186508152Y-122016666D01*
X186508152Y-122016666D02*
X186603390Y-122064285D01*
X186603390Y-122064285D02*
X186651009Y-122111904D01*
X186651009Y-122111904D02*
X186698628Y-122207142D01*
X186698628Y-122207142D02*
X186698628Y-122588094D01*
X186174819Y-121683332D02*
X186174819Y-121016666D01*
X186174819Y-121016666D02*
X187174819Y-121445237D01*
X133738095Y-133244819D02*
X133738095Y-134054342D01*
X133738095Y-134054342D02*
X133785714Y-134149580D01*
X133785714Y-134149580D02*
X133833333Y-134197200D01*
X133833333Y-134197200D02*
X133928571Y-134244819D01*
X133928571Y-134244819D02*
X134119047Y-134244819D01*
X134119047Y-134244819D02*
X134214285Y-134197200D01*
X134214285Y-134197200D02*
X134261904Y-134149580D01*
X134261904Y-134149580D02*
X134309523Y-134054342D01*
X134309523Y-134054342D02*
X134309523Y-133244819D01*
X134738095Y-133340057D02*
X134785714Y-133292438D01*
X134785714Y-133292438D02*
X134880952Y-133244819D01*
X134880952Y-133244819D02*
X135119047Y-133244819D01*
X135119047Y-133244819D02*
X135214285Y-133292438D01*
X135214285Y-133292438D02*
X135261904Y-133340057D01*
X135261904Y-133340057D02*
X135309523Y-133435295D01*
X135309523Y-133435295D02*
X135309523Y-133530533D01*
X135309523Y-133530533D02*
X135261904Y-133673390D01*
X135261904Y-133673390D02*
X134690476Y-134244819D01*
X134690476Y-134244819D02*
X135309523Y-134244819D01*
X97690476Y-128454819D02*
X97690476Y-129169104D01*
X97690476Y-129169104D02*
X97642857Y-129311961D01*
X97642857Y-129311961D02*
X97547619Y-129407200D01*
X97547619Y-129407200D02*
X97404762Y-129454819D01*
X97404762Y-129454819D02*
X97309524Y-129454819D01*
X98166667Y-129454819D02*
X98166667Y-128454819D01*
X98166667Y-128454819D02*
X98547619Y-128454819D01*
X98547619Y-128454819D02*
X98642857Y-128502438D01*
X98642857Y-128502438D02*
X98690476Y-128550057D01*
X98690476Y-128550057D02*
X98738095Y-128645295D01*
X98738095Y-128645295D02*
X98738095Y-128788152D01*
X98738095Y-128788152D02*
X98690476Y-128883390D01*
X98690476Y-128883390D02*
X98642857Y-128931009D01*
X98642857Y-128931009D02*
X98547619Y-128978628D01*
X98547619Y-128978628D02*
X98166667Y-128978628D01*
X99690476Y-129454819D02*
X99119048Y-129454819D01*
X99404762Y-129454819D02*
X99404762Y-128454819D01*
X99404762Y-128454819D02*
X99309524Y-128597676D01*
X99309524Y-128597676D02*
X99214286Y-128692914D01*
X99214286Y-128692914D02*
X99119048Y-128740533D01*
X100023810Y-128454819D02*
X100690476Y-128454819D01*
X100690476Y-128454819D02*
X100261905Y-129454819D01*
X96916666Y-66954819D02*
X96916666Y-67669104D01*
X96916666Y-67669104D02*
X96869047Y-67811961D01*
X96869047Y-67811961D02*
X96773809Y-67907200D01*
X96773809Y-67907200D02*
X96630952Y-67954819D01*
X96630952Y-67954819D02*
X96535714Y-67954819D01*
X97916666Y-67954819D02*
X97345238Y-67954819D01*
X97630952Y-67954819D02*
X97630952Y-66954819D01*
X97630952Y-66954819D02*
X97535714Y-67097676D01*
X97535714Y-67097676D02*
X97440476Y-67192914D01*
X97440476Y-67192914D02*
X97345238Y-67240533D01*
X114854819Y-73761904D02*
X115664342Y-73761904D01*
X115664342Y-73761904D02*
X115759580Y-73714285D01*
X115759580Y-73714285D02*
X115807200Y-73666666D01*
X115807200Y-73666666D02*
X115854819Y-73571428D01*
X115854819Y-73571428D02*
X115854819Y-73380952D01*
X115854819Y-73380952D02*
X115807200Y-73285714D01*
X115807200Y-73285714D02*
X115759580Y-73238095D01*
X115759580Y-73238095D02*
X115664342Y-73190476D01*
X115664342Y-73190476D02*
X114854819Y-73190476D01*
X115854819Y-72190476D02*
X115854819Y-72761904D01*
X115854819Y-72476190D02*
X114854819Y-72476190D01*
X114854819Y-72476190D02*
X114997676Y-72571428D01*
X114997676Y-72571428D02*
X115092914Y-72666666D01*
X115092914Y-72666666D02*
X115140533Y-72761904D01*
X113190476Y-103454819D02*
X113190476Y-104169104D01*
X113190476Y-104169104D02*
X113142857Y-104311961D01*
X113142857Y-104311961D02*
X113047619Y-104407200D01*
X113047619Y-104407200D02*
X112904762Y-104454819D01*
X112904762Y-104454819D02*
X112809524Y-104454819D01*
X113666667Y-104454819D02*
X113666667Y-103454819D01*
X113666667Y-103454819D02*
X114047619Y-103454819D01*
X114047619Y-103454819D02*
X114142857Y-103502438D01*
X114142857Y-103502438D02*
X114190476Y-103550057D01*
X114190476Y-103550057D02*
X114238095Y-103645295D01*
X114238095Y-103645295D02*
X114238095Y-103788152D01*
X114238095Y-103788152D02*
X114190476Y-103883390D01*
X114190476Y-103883390D02*
X114142857Y-103931009D01*
X114142857Y-103931009D02*
X114047619Y-103978628D01*
X114047619Y-103978628D02*
X113666667Y-103978628D01*
X114619048Y-103550057D02*
X114666667Y-103502438D01*
X114666667Y-103502438D02*
X114761905Y-103454819D01*
X114761905Y-103454819D02*
X115000000Y-103454819D01*
X115000000Y-103454819D02*
X115095238Y-103502438D01*
X115095238Y-103502438D02*
X115142857Y-103550057D01*
X115142857Y-103550057D02*
X115190476Y-103645295D01*
X115190476Y-103645295D02*
X115190476Y-103740533D01*
X115190476Y-103740533D02*
X115142857Y-103883390D01*
X115142857Y-103883390D02*
X114571429Y-104454819D01*
X114571429Y-104454819D02*
X115190476Y-104454819D01*
X115761905Y-103883390D02*
X115666667Y-103835771D01*
X115666667Y-103835771D02*
X115619048Y-103788152D01*
X115619048Y-103788152D02*
X115571429Y-103692914D01*
X115571429Y-103692914D02*
X115571429Y-103645295D01*
X115571429Y-103645295D02*
X115619048Y-103550057D01*
X115619048Y-103550057D02*
X115666667Y-103502438D01*
X115666667Y-103502438D02*
X115761905Y-103454819D01*
X115761905Y-103454819D02*
X115952381Y-103454819D01*
X115952381Y-103454819D02*
X116047619Y-103502438D01*
X116047619Y-103502438D02*
X116095238Y-103550057D01*
X116095238Y-103550057D02*
X116142857Y-103645295D01*
X116142857Y-103645295D02*
X116142857Y-103692914D01*
X116142857Y-103692914D02*
X116095238Y-103788152D01*
X116095238Y-103788152D02*
X116047619Y-103835771D01*
X116047619Y-103835771D02*
X115952381Y-103883390D01*
X115952381Y-103883390D02*
X115761905Y-103883390D01*
X115761905Y-103883390D02*
X115666667Y-103931009D01*
X115666667Y-103931009D02*
X115619048Y-103978628D01*
X115619048Y-103978628D02*
X115571429Y-104073866D01*
X115571429Y-104073866D02*
X115571429Y-104264342D01*
X115571429Y-104264342D02*
X115619048Y-104359580D01*
X115619048Y-104359580D02*
X115666667Y-104407200D01*
X115666667Y-104407200D02*
X115761905Y-104454819D01*
X115761905Y-104454819D02*
X115952381Y-104454819D01*
X115952381Y-104454819D02*
X116047619Y-104407200D01*
X116047619Y-104407200D02*
X116095238Y-104359580D01*
X116095238Y-104359580D02*
X116142857Y-104264342D01*
X116142857Y-104264342D02*
X116142857Y-104073866D01*
X116142857Y-104073866D02*
X116095238Y-103978628D01*
X116095238Y-103978628D02*
X116047619Y-103931009D01*
X116047619Y-103931009D02*
X115952381Y-103883390D01*
X108454819Y-83333333D02*
X109169104Y-83333333D01*
X109169104Y-83333333D02*
X109311961Y-83380952D01*
X109311961Y-83380952D02*
X109407200Y-83476190D01*
X109407200Y-83476190D02*
X109454819Y-83619047D01*
X109454819Y-83619047D02*
X109454819Y-83714285D01*
X109454819Y-82857142D02*
X108454819Y-82857142D01*
X108454819Y-82857142D02*
X108454819Y-82476190D01*
X108454819Y-82476190D02*
X108502438Y-82380952D01*
X108502438Y-82380952D02*
X108550057Y-82333333D01*
X108550057Y-82333333D02*
X108645295Y-82285714D01*
X108645295Y-82285714D02*
X108788152Y-82285714D01*
X108788152Y-82285714D02*
X108883390Y-82333333D01*
X108883390Y-82333333D02*
X108931009Y-82380952D01*
X108931009Y-82380952D02*
X108978628Y-82476190D01*
X108978628Y-82476190D02*
X108978628Y-82857142D01*
X108883390Y-81714285D02*
X108835771Y-81809523D01*
X108835771Y-81809523D02*
X108788152Y-81857142D01*
X108788152Y-81857142D02*
X108692914Y-81904761D01*
X108692914Y-81904761D02*
X108645295Y-81904761D01*
X108645295Y-81904761D02*
X108550057Y-81857142D01*
X108550057Y-81857142D02*
X108502438Y-81809523D01*
X108502438Y-81809523D02*
X108454819Y-81714285D01*
X108454819Y-81714285D02*
X108454819Y-81523809D01*
X108454819Y-81523809D02*
X108502438Y-81428571D01*
X108502438Y-81428571D02*
X108550057Y-81380952D01*
X108550057Y-81380952D02*
X108645295Y-81333333D01*
X108645295Y-81333333D02*
X108692914Y-81333333D01*
X108692914Y-81333333D02*
X108788152Y-81380952D01*
X108788152Y-81380952D02*
X108835771Y-81428571D01*
X108835771Y-81428571D02*
X108883390Y-81523809D01*
X108883390Y-81523809D02*
X108883390Y-81714285D01*
X108883390Y-81714285D02*
X108931009Y-81809523D01*
X108931009Y-81809523D02*
X108978628Y-81857142D01*
X108978628Y-81857142D02*
X109073866Y-81904761D01*
X109073866Y-81904761D02*
X109264342Y-81904761D01*
X109264342Y-81904761D02*
X109359580Y-81857142D01*
X109359580Y-81857142D02*
X109407200Y-81809523D01*
X109407200Y-81809523D02*
X109454819Y-81714285D01*
X109454819Y-81714285D02*
X109454819Y-81523809D01*
X109454819Y-81523809D02*
X109407200Y-81428571D01*
X109407200Y-81428571D02*
X109359580Y-81380952D01*
X109359580Y-81380952D02*
X109264342Y-81333333D01*
X109264342Y-81333333D02*
X109073866Y-81333333D01*
X109073866Y-81333333D02*
X108978628Y-81380952D01*
X108978628Y-81380952D02*
X108931009Y-81428571D01*
X108931009Y-81428571D02*
X108883390Y-81523809D01*
X120954819Y-145333333D02*
X121669104Y-145333333D01*
X121669104Y-145333333D02*
X121811961Y-145380952D01*
X121811961Y-145380952D02*
X121907200Y-145476190D01*
X121907200Y-145476190D02*
X121954819Y-145619047D01*
X121954819Y-145619047D02*
X121954819Y-145714285D01*
X121954819Y-144857142D02*
X120954819Y-144857142D01*
X120954819Y-144857142D02*
X120954819Y-144476190D01*
X120954819Y-144476190D02*
X121002438Y-144380952D01*
X121002438Y-144380952D02*
X121050057Y-144333333D01*
X121050057Y-144333333D02*
X121145295Y-144285714D01*
X121145295Y-144285714D02*
X121288152Y-144285714D01*
X121288152Y-144285714D02*
X121383390Y-144333333D01*
X121383390Y-144333333D02*
X121431009Y-144380952D01*
X121431009Y-144380952D02*
X121478628Y-144476190D01*
X121478628Y-144476190D02*
X121478628Y-144857142D01*
X120954819Y-143380952D02*
X120954819Y-143857142D01*
X120954819Y-143857142D02*
X121431009Y-143904761D01*
X121431009Y-143904761D02*
X121383390Y-143857142D01*
X121383390Y-143857142D02*
X121335771Y-143761904D01*
X121335771Y-143761904D02*
X121335771Y-143523809D01*
X121335771Y-143523809D02*
X121383390Y-143428571D01*
X121383390Y-143428571D02*
X121431009Y-143380952D01*
X121431009Y-143380952D02*
X121526247Y-143333333D01*
X121526247Y-143333333D02*
X121764342Y-143333333D01*
X121764342Y-143333333D02*
X121859580Y-143380952D01*
X121859580Y-143380952D02*
X121907200Y-143428571D01*
X121907200Y-143428571D02*
X121954819Y-143523809D01*
X121954819Y-143523809D02*
X121954819Y-143761904D01*
X121954819Y-143761904D02*
X121907200Y-143857142D01*
X121907200Y-143857142D02*
X121859580Y-143904761D01*
X102690476Y-149954819D02*
X102690476Y-150669104D01*
X102690476Y-150669104D02*
X102642857Y-150811961D01*
X102642857Y-150811961D02*
X102547619Y-150907200D01*
X102547619Y-150907200D02*
X102404762Y-150954819D01*
X102404762Y-150954819D02*
X102309524Y-150954819D01*
X103166667Y-150954819D02*
X103166667Y-149954819D01*
X103166667Y-149954819D02*
X103547619Y-149954819D01*
X103547619Y-149954819D02*
X103642857Y-150002438D01*
X103642857Y-150002438D02*
X103690476Y-150050057D01*
X103690476Y-150050057D02*
X103738095Y-150145295D01*
X103738095Y-150145295D02*
X103738095Y-150288152D01*
X103738095Y-150288152D02*
X103690476Y-150383390D01*
X103690476Y-150383390D02*
X103642857Y-150431009D01*
X103642857Y-150431009D02*
X103547619Y-150478628D01*
X103547619Y-150478628D02*
X103166667Y-150478628D01*
X104690476Y-150954819D02*
X104119048Y-150954819D01*
X104404762Y-150954819D02*
X104404762Y-149954819D01*
X104404762Y-149954819D02*
X104309524Y-150097676D01*
X104309524Y-150097676D02*
X104214286Y-150192914D01*
X104214286Y-150192914D02*
X104119048Y-150240533D01*
X105071429Y-150050057D02*
X105119048Y-150002438D01*
X105119048Y-150002438D02*
X105214286Y-149954819D01*
X105214286Y-149954819D02*
X105452381Y-149954819D01*
X105452381Y-149954819D02*
X105547619Y-150002438D01*
X105547619Y-150002438D02*
X105595238Y-150050057D01*
X105595238Y-150050057D02*
X105642857Y-150145295D01*
X105642857Y-150145295D02*
X105642857Y-150240533D01*
X105642857Y-150240533D02*
X105595238Y-150383390D01*
X105595238Y-150383390D02*
X105023810Y-150954819D01*
X105023810Y-150954819D02*
X105642857Y-150954819D01*
X113690476Y-131454819D02*
X113690476Y-132169104D01*
X113690476Y-132169104D02*
X113642857Y-132311961D01*
X113642857Y-132311961D02*
X113547619Y-132407200D01*
X113547619Y-132407200D02*
X113404762Y-132454819D01*
X113404762Y-132454819D02*
X113309524Y-132454819D01*
X114166667Y-132454819D02*
X114166667Y-131454819D01*
X114166667Y-131454819D02*
X114547619Y-131454819D01*
X114547619Y-131454819D02*
X114642857Y-131502438D01*
X114642857Y-131502438D02*
X114690476Y-131550057D01*
X114690476Y-131550057D02*
X114738095Y-131645295D01*
X114738095Y-131645295D02*
X114738095Y-131788152D01*
X114738095Y-131788152D02*
X114690476Y-131883390D01*
X114690476Y-131883390D02*
X114642857Y-131931009D01*
X114642857Y-131931009D02*
X114547619Y-131978628D01*
X114547619Y-131978628D02*
X114166667Y-131978628D01*
X115690476Y-132454819D02*
X115119048Y-132454819D01*
X115404762Y-132454819D02*
X115404762Y-131454819D01*
X115404762Y-131454819D02*
X115309524Y-131597676D01*
X115309524Y-131597676D02*
X115214286Y-131692914D01*
X115214286Y-131692914D02*
X115119048Y-131740533D01*
X116642857Y-132454819D02*
X116071429Y-132454819D01*
X116357143Y-132454819D02*
X116357143Y-131454819D01*
X116357143Y-131454819D02*
X116261905Y-131597676D01*
X116261905Y-131597676D02*
X116166667Y-131692914D01*
X116166667Y-131692914D02*
X116071429Y-131740533D01*
X168234819Y-141166666D02*
X167758628Y-141499999D01*
X168234819Y-141738094D02*
X167234819Y-141738094D01*
X167234819Y-141738094D02*
X167234819Y-141357142D01*
X167234819Y-141357142D02*
X167282438Y-141261904D01*
X167282438Y-141261904D02*
X167330057Y-141214285D01*
X167330057Y-141214285D02*
X167425295Y-141166666D01*
X167425295Y-141166666D02*
X167568152Y-141166666D01*
X167568152Y-141166666D02*
X167663390Y-141214285D01*
X167663390Y-141214285D02*
X167711009Y-141261904D01*
X167711009Y-141261904D02*
X167758628Y-141357142D01*
X167758628Y-141357142D02*
X167758628Y-141738094D01*
X167234819Y-140309523D02*
X167234819Y-140499999D01*
X167234819Y-140499999D02*
X167282438Y-140595237D01*
X167282438Y-140595237D02*
X167330057Y-140642856D01*
X167330057Y-140642856D02*
X167472914Y-140738094D01*
X167472914Y-140738094D02*
X167663390Y-140785713D01*
X167663390Y-140785713D02*
X168044342Y-140785713D01*
X168044342Y-140785713D02*
X168139580Y-140738094D01*
X168139580Y-140738094D02*
X168187200Y-140690475D01*
X168187200Y-140690475D02*
X168234819Y-140595237D01*
X168234819Y-140595237D02*
X168234819Y-140404761D01*
X168234819Y-140404761D02*
X168187200Y-140309523D01*
X168187200Y-140309523D02*
X168139580Y-140261904D01*
X168139580Y-140261904D02*
X168044342Y-140214285D01*
X168044342Y-140214285D02*
X167806247Y-140214285D01*
X167806247Y-140214285D02*
X167711009Y-140261904D01*
X167711009Y-140261904D02*
X167663390Y-140309523D01*
X167663390Y-140309523D02*
X167615771Y-140404761D01*
X167615771Y-140404761D02*
X167615771Y-140595237D01*
X167615771Y-140595237D02*
X167663390Y-140690475D01*
X167663390Y-140690475D02*
X167711009Y-140738094D01*
X167711009Y-140738094D02*
X167806247Y-140785713D01*
X164974819Y-142261904D02*
X165784342Y-142261904D01*
X165784342Y-142261904D02*
X165879580Y-142214285D01*
X165879580Y-142214285D02*
X165927200Y-142166666D01*
X165927200Y-142166666D02*
X165974819Y-142071428D01*
X165974819Y-142071428D02*
X165974819Y-141880952D01*
X165974819Y-141880952D02*
X165927200Y-141785714D01*
X165927200Y-141785714D02*
X165879580Y-141738095D01*
X165879580Y-141738095D02*
X165784342Y-141690476D01*
X165784342Y-141690476D02*
X164974819Y-141690476D01*
X164974819Y-140785714D02*
X164974819Y-140976190D01*
X164974819Y-140976190D02*
X165022438Y-141071428D01*
X165022438Y-141071428D02*
X165070057Y-141119047D01*
X165070057Y-141119047D02*
X165212914Y-141214285D01*
X165212914Y-141214285D02*
X165403390Y-141261904D01*
X165403390Y-141261904D02*
X165784342Y-141261904D01*
X165784342Y-141261904D02*
X165879580Y-141214285D01*
X165879580Y-141214285D02*
X165927200Y-141166666D01*
X165927200Y-141166666D02*
X165974819Y-141071428D01*
X165974819Y-141071428D02*
X165974819Y-140880952D01*
X165974819Y-140880952D02*
X165927200Y-140785714D01*
X165927200Y-140785714D02*
X165879580Y-140738095D01*
X165879580Y-140738095D02*
X165784342Y-140690476D01*
X165784342Y-140690476D02*
X165546247Y-140690476D01*
X165546247Y-140690476D02*
X165451009Y-140738095D01*
X165451009Y-140738095D02*
X165403390Y-140785714D01*
X165403390Y-140785714D02*
X165355771Y-140880952D01*
X165355771Y-140880952D02*
X165355771Y-141071428D01*
X165355771Y-141071428D02*
X165403390Y-141166666D01*
X165403390Y-141166666D02*
X165451009Y-141214285D01*
X165451009Y-141214285D02*
X165546247Y-141261904D01*
X113190476Y-128954819D02*
X113190476Y-129669104D01*
X113190476Y-129669104D02*
X113142857Y-129811961D01*
X113142857Y-129811961D02*
X113047619Y-129907200D01*
X113047619Y-129907200D02*
X112904762Y-129954819D01*
X112904762Y-129954819D02*
X112809524Y-129954819D01*
X113666667Y-129954819D02*
X113666667Y-128954819D01*
X113666667Y-128954819D02*
X114047619Y-128954819D01*
X114047619Y-128954819D02*
X114142857Y-129002438D01*
X114142857Y-129002438D02*
X114190476Y-129050057D01*
X114190476Y-129050057D02*
X114238095Y-129145295D01*
X114238095Y-129145295D02*
X114238095Y-129288152D01*
X114238095Y-129288152D02*
X114190476Y-129383390D01*
X114190476Y-129383390D02*
X114142857Y-129431009D01*
X114142857Y-129431009D02*
X114047619Y-129478628D01*
X114047619Y-129478628D02*
X113666667Y-129478628D01*
X115190476Y-129954819D02*
X114619048Y-129954819D01*
X114904762Y-129954819D02*
X114904762Y-128954819D01*
X114904762Y-128954819D02*
X114809524Y-129097676D01*
X114809524Y-129097676D02*
X114714286Y-129192914D01*
X114714286Y-129192914D02*
X114619048Y-129240533D01*
X116047619Y-128954819D02*
X115857143Y-128954819D01*
X115857143Y-128954819D02*
X115761905Y-129002438D01*
X115761905Y-129002438D02*
X115714286Y-129050057D01*
X115714286Y-129050057D02*
X115619048Y-129192914D01*
X115619048Y-129192914D02*
X115571429Y-129383390D01*
X115571429Y-129383390D02*
X115571429Y-129764342D01*
X115571429Y-129764342D02*
X115619048Y-129859580D01*
X115619048Y-129859580D02*
X115666667Y-129907200D01*
X115666667Y-129907200D02*
X115761905Y-129954819D01*
X115761905Y-129954819D02*
X115952381Y-129954819D01*
X115952381Y-129954819D02*
X116047619Y-129907200D01*
X116047619Y-129907200D02*
X116095238Y-129859580D01*
X116095238Y-129859580D02*
X116142857Y-129764342D01*
X116142857Y-129764342D02*
X116142857Y-129526247D01*
X116142857Y-129526247D02*
X116095238Y-129431009D01*
X116095238Y-129431009D02*
X116047619Y-129383390D01*
X116047619Y-129383390D02*
X115952381Y-129335771D01*
X115952381Y-129335771D02*
X115761905Y-129335771D01*
X115761905Y-129335771D02*
X115666667Y-129383390D01*
X115666667Y-129383390D02*
X115619048Y-129431009D01*
X115619048Y-129431009D02*
X115571429Y-129526247D01*
X105738095Y-93454819D02*
X106309523Y-93454819D01*
X106023809Y-94454819D02*
X106023809Y-93454819D01*
X106642857Y-94454819D02*
X106642857Y-93454819D01*
X106642857Y-93454819D02*
X107023809Y-93454819D01*
X107023809Y-93454819D02*
X107119047Y-93502438D01*
X107119047Y-93502438D02*
X107166666Y-93550057D01*
X107166666Y-93550057D02*
X107214285Y-93645295D01*
X107214285Y-93645295D02*
X107214285Y-93788152D01*
X107214285Y-93788152D02*
X107166666Y-93883390D01*
X107166666Y-93883390D02*
X107119047Y-93931009D01*
X107119047Y-93931009D02*
X107023809Y-93978628D01*
X107023809Y-93978628D02*
X106642857Y-93978628D01*
X107547619Y-93454819D02*
X108166666Y-93454819D01*
X108166666Y-93454819D02*
X107833333Y-93835771D01*
X107833333Y-93835771D02*
X107976190Y-93835771D01*
X107976190Y-93835771D02*
X108071428Y-93883390D01*
X108071428Y-93883390D02*
X108119047Y-93931009D01*
X108119047Y-93931009D02*
X108166666Y-94026247D01*
X108166666Y-94026247D02*
X108166666Y-94264342D01*
X108166666Y-94264342D02*
X108119047Y-94359580D01*
X108119047Y-94359580D02*
X108071428Y-94407200D01*
X108071428Y-94407200D02*
X107976190Y-94454819D01*
X107976190Y-94454819D02*
X107690476Y-94454819D01*
X107690476Y-94454819D02*
X107595238Y-94407200D01*
X107595238Y-94407200D02*
X107547619Y-94359580D01*
X92190476Y-103954819D02*
X92190476Y-104669104D01*
X92190476Y-104669104D02*
X92142857Y-104811961D01*
X92142857Y-104811961D02*
X92047619Y-104907200D01*
X92047619Y-104907200D02*
X91904762Y-104954819D01*
X91904762Y-104954819D02*
X91809524Y-104954819D01*
X92666667Y-104954819D02*
X92666667Y-103954819D01*
X92666667Y-103954819D02*
X93047619Y-103954819D01*
X93047619Y-103954819D02*
X93142857Y-104002438D01*
X93142857Y-104002438D02*
X93190476Y-104050057D01*
X93190476Y-104050057D02*
X93238095Y-104145295D01*
X93238095Y-104145295D02*
X93238095Y-104288152D01*
X93238095Y-104288152D02*
X93190476Y-104383390D01*
X93190476Y-104383390D02*
X93142857Y-104431009D01*
X93142857Y-104431009D02*
X93047619Y-104478628D01*
X93047619Y-104478628D02*
X92666667Y-104478628D01*
X93619048Y-104050057D02*
X93666667Y-104002438D01*
X93666667Y-104002438D02*
X93761905Y-103954819D01*
X93761905Y-103954819D02*
X94000000Y-103954819D01*
X94000000Y-103954819D02*
X94095238Y-104002438D01*
X94095238Y-104002438D02*
X94142857Y-104050057D01*
X94142857Y-104050057D02*
X94190476Y-104145295D01*
X94190476Y-104145295D02*
X94190476Y-104240533D01*
X94190476Y-104240533D02*
X94142857Y-104383390D01*
X94142857Y-104383390D02*
X93571429Y-104954819D01*
X93571429Y-104954819D02*
X94190476Y-104954819D01*
X95095238Y-103954819D02*
X94619048Y-103954819D01*
X94619048Y-103954819D02*
X94571429Y-104431009D01*
X94571429Y-104431009D02*
X94619048Y-104383390D01*
X94619048Y-104383390D02*
X94714286Y-104335771D01*
X94714286Y-104335771D02*
X94952381Y-104335771D01*
X94952381Y-104335771D02*
X95047619Y-104383390D01*
X95047619Y-104383390D02*
X95095238Y-104431009D01*
X95095238Y-104431009D02*
X95142857Y-104526247D01*
X95142857Y-104526247D02*
X95142857Y-104764342D01*
X95142857Y-104764342D02*
X95095238Y-104859580D01*
X95095238Y-104859580D02*
X95047619Y-104907200D01*
X95047619Y-104907200D02*
X94952381Y-104954819D01*
X94952381Y-104954819D02*
X94714286Y-104954819D01*
X94714286Y-104954819D02*
X94619048Y-104907200D01*
X94619048Y-104907200D02*
X94571429Y-104859580D01*
X125833333Y-148709580D02*
X125785714Y-148757200D01*
X125785714Y-148757200D02*
X125642857Y-148804819D01*
X125642857Y-148804819D02*
X125547619Y-148804819D01*
X125547619Y-148804819D02*
X125404762Y-148757200D01*
X125404762Y-148757200D02*
X125309524Y-148661961D01*
X125309524Y-148661961D02*
X125261905Y-148566723D01*
X125261905Y-148566723D02*
X125214286Y-148376247D01*
X125214286Y-148376247D02*
X125214286Y-148233390D01*
X125214286Y-148233390D02*
X125261905Y-148042914D01*
X125261905Y-148042914D02*
X125309524Y-147947676D01*
X125309524Y-147947676D02*
X125404762Y-147852438D01*
X125404762Y-147852438D02*
X125547619Y-147804819D01*
X125547619Y-147804819D02*
X125642857Y-147804819D01*
X125642857Y-147804819D02*
X125785714Y-147852438D01*
X125785714Y-147852438D02*
X125833333Y-147900057D01*
X126166667Y-147804819D02*
X126785714Y-147804819D01*
X126785714Y-147804819D02*
X126452381Y-148185771D01*
X126452381Y-148185771D02*
X126595238Y-148185771D01*
X126595238Y-148185771D02*
X126690476Y-148233390D01*
X126690476Y-148233390D02*
X126738095Y-148281009D01*
X126738095Y-148281009D02*
X126785714Y-148376247D01*
X126785714Y-148376247D02*
X126785714Y-148614342D01*
X126785714Y-148614342D02*
X126738095Y-148709580D01*
X126738095Y-148709580D02*
X126690476Y-148757200D01*
X126690476Y-148757200D02*
X126595238Y-148804819D01*
X126595238Y-148804819D02*
X126309524Y-148804819D01*
X126309524Y-148804819D02*
X126214286Y-148757200D01*
X126214286Y-148757200D02*
X126166667Y-148709580D01*
X152174819Y-126166666D02*
X151698628Y-126499999D01*
X152174819Y-126738094D02*
X151174819Y-126738094D01*
X151174819Y-126738094D02*
X151174819Y-126357142D01*
X151174819Y-126357142D02*
X151222438Y-126261904D01*
X151222438Y-126261904D02*
X151270057Y-126214285D01*
X151270057Y-126214285D02*
X151365295Y-126166666D01*
X151365295Y-126166666D02*
X151508152Y-126166666D01*
X151508152Y-126166666D02*
X151603390Y-126214285D01*
X151603390Y-126214285D02*
X151651009Y-126261904D01*
X151651009Y-126261904D02*
X151698628Y-126357142D01*
X151698628Y-126357142D02*
X151698628Y-126738094D01*
X151508152Y-125309523D02*
X152174819Y-125309523D01*
X151127200Y-125547618D02*
X151841485Y-125785713D01*
X151841485Y-125785713D02*
X151841485Y-125166666D01*
X157454819Y-131833333D02*
X158169104Y-131833333D01*
X158169104Y-131833333D02*
X158311961Y-131880952D01*
X158311961Y-131880952D02*
X158407200Y-131976190D01*
X158407200Y-131976190D02*
X158454819Y-132119047D01*
X158454819Y-132119047D02*
X158454819Y-132214285D01*
X158454819Y-131357142D02*
X157454819Y-131357142D01*
X157454819Y-131357142D02*
X157454819Y-130976190D01*
X157454819Y-130976190D02*
X157502438Y-130880952D01*
X157502438Y-130880952D02*
X157550057Y-130833333D01*
X157550057Y-130833333D02*
X157645295Y-130785714D01*
X157645295Y-130785714D02*
X157788152Y-130785714D01*
X157788152Y-130785714D02*
X157883390Y-130833333D01*
X157883390Y-130833333D02*
X157931009Y-130880952D01*
X157931009Y-130880952D02*
X157978628Y-130976190D01*
X157978628Y-130976190D02*
X157978628Y-131357142D01*
X157454819Y-130452380D02*
X157454819Y-129785714D01*
X157454819Y-129785714D02*
X158454819Y-130214285D01*
X113190476Y-120454819D02*
X113190476Y-121169104D01*
X113190476Y-121169104D02*
X113142857Y-121311961D01*
X113142857Y-121311961D02*
X113047619Y-121407200D01*
X113047619Y-121407200D02*
X112904762Y-121454819D01*
X112904762Y-121454819D02*
X112809524Y-121454819D01*
X113666667Y-121454819D02*
X113666667Y-120454819D01*
X113666667Y-120454819D02*
X114047619Y-120454819D01*
X114047619Y-120454819D02*
X114142857Y-120502438D01*
X114142857Y-120502438D02*
X114190476Y-120550057D01*
X114190476Y-120550057D02*
X114238095Y-120645295D01*
X114238095Y-120645295D02*
X114238095Y-120788152D01*
X114238095Y-120788152D02*
X114190476Y-120883390D01*
X114190476Y-120883390D02*
X114142857Y-120931009D01*
X114142857Y-120931009D02*
X114047619Y-120978628D01*
X114047619Y-120978628D02*
X113666667Y-120978628D01*
X114619048Y-120550057D02*
X114666667Y-120502438D01*
X114666667Y-120502438D02*
X114761905Y-120454819D01*
X114761905Y-120454819D02*
X115000000Y-120454819D01*
X115000000Y-120454819D02*
X115095238Y-120502438D01*
X115095238Y-120502438D02*
X115142857Y-120550057D01*
X115142857Y-120550057D02*
X115190476Y-120645295D01*
X115190476Y-120645295D02*
X115190476Y-120740533D01*
X115190476Y-120740533D02*
X115142857Y-120883390D01*
X115142857Y-120883390D02*
X114571429Y-121454819D01*
X114571429Y-121454819D02*
X115190476Y-121454819D01*
X116142857Y-121454819D02*
X115571429Y-121454819D01*
X115857143Y-121454819D02*
X115857143Y-120454819D01*
X115857143Y-120454819D02*
X115761905Y-120597676D01*
X115761905Y-120597676D02*
X115666667Y-120692914D01*
X115666667Y-120692914D02*
X115571429Y-120740533D01*
X99190476Y-104454819D02*
X99190476Y-105169104D01*
X99190476Y-105169104D02*
X99142857Y-105311961D01*
X99142857Y-105311961D02*
X99047619Y-105407200D01*
X99047619Y-105407200D02*
X98904762Y-105454819D01*
X98904762Y-105454819D02*
X98809524Y-105454819D01*
X99666667Y-105454819D02*
X99666667Y-104454819D01*
X99666667Y-104454819D02*
X100047619Y-104454819D01*
X100047619Y-104454819D02*
X100142857Y-104502438D01*
X100142857Y-104502438D02*
X100190476Y-104550057D01*
X100190476Y-104550057D02*
X100238095Y-104645295D01*
X100238095Y-104645295D02*
X100238095Y-104788152D01*
X100238095Y-104788152D02*
X100190476Y-104883390D01*
X100190476Y-104883390D02*
X100142857Y-104931009D01*
X100142857Y-104931009D02*
X100047619Y-104978628D01*
X100047619Y-104978628D02*
X99666667Y-104978628D01*
X100619048Y-104550057D02*
X100666667Y-104502438D01*
X100666667Y-104502438D02*
X100761905Y-104454819D01*
X100761905Y-104454819D02*
X101000000Y-104454819D01*
X101000000Y-104454819D02*
X101095238Y-104502438D01*
X101095238Y-104502438D02*
X101142857Y-104550057D01*
X101142857Y-104550057D02*
X101190476Y-104645295D01*
X101190476Y-104645295D02*
X101190476Y-104740533D01*
X101190476Y-104740533D02*
X101142857Y-104883390D01*
X101142857Y-104883390D02*
X100571429Y-105454819D01*
X100571429Y-105454819D02*
X101190476Y-105454819D01*
X102047619Y-104454819D02*
X101857143Y-104454819D01*
X101857143Y-104454819D02*
X101761905Y-104502438D01*
X101761905Y-104502438D02*
X101714286Y-104550057D01*
X101714286Y-104550057D02*
X101619048Y-104692914D01*
X101619048Y-104692914D02*
X101571429Y-104883390D01*
X101571429Y-104883390D02*
X101571429Y-105264342D01*
X101571429Y-105264342D02*
X101619048Y-105359580D01*
X101619048Y-105359580D02*
X101666667Y-105407200D01*
X101666667Y-105407200D02*
X101761905Y-105454819D01*
X101761905Y-105454819D02*
X101952381Y-105454819D01*
X101952381Y-105454819D02*
X102047619Y-105407200D01*
X102047619Y-105407200D02*
X102095238Y-105359580D01*
X102095238Y-105359580D02*
X102142857Y-105264342D01*
X102142857Y-105264342D02*
X102142857Y-105026247D01*
X102142857Y-105026247D02*
X102095238Y-104931009D01*
X102095238Y-104931009D02*
X102047619Y-104883390D01*
X102047619Y-104883390D02*
X101952381Y-104835771D01*
X101952381Y-104835771D02*
X101761905Y-104835771D01*
X101761905Y-104835771D02*
X101666667Y-104883390D01*
X101666667Y-104883390D02*
X101619048Y-104931009D01*
X101619048Y-104931009D02*
X101571429Y-105026247D01*
X175738095Y-131454819D02*
X176309523Y-131454819D01*
X176023809Y-132454819D02*
X176023809Y-131454819D01*
X176642857Y-132454819D02*
X176642857Y-131454819D01*
X176642857Y-131454819D02*
X177023809Y-131454819D01*
X177023809Y-131454819D02*
X177119047Y-131502438D01*
X177119047Y-131502438D02*
X177166666Y-131550057D01*
X177166666Y-131550057D02*
X177214285Y-131645295D01*
X177214285Y-131645295D02*
X177214285Y-131788152D01*
X177214285Y-131788152D02*
X177166666Y-131883390D01*
X177166666Y-131883390D02*
X177119047Y-131931009D01*
X177119047Y-131931009D02*
X177023809Y-131978628D01*
X177023809Y-131978628D02*
X176642857Y-131978628D01*
X178119047Y-131454819D02*
X177642857Y-131454819D01*
X177642857Y-131454819D02*
X177595238Y-131931009D01*
X177595238Y-131931009D02*
X177642857Y-131883390D01*
X177642857Y-131883390D02*
X177738095Y-131835771D01*
X177738095Y-131835771D02*
X177976190Y-131835771D01*
X177976190Y-131835771D02*
X178071428Y-131883390D01*
X178071428Y-131883390D02*
X178119047Y-131931009D01*
X178119047Y-131931009D02*
X178166666Y-132026247D01*
X178166666Y-132026247D02*
X178166666Y-132264342D01*
X178166666Y-132264342D02*
X178119047Y-132359580D01*
X178119047Y-132359580D02*
X178071428Y-132407200D01*
X178071428Y-132407200D02*
X177976190Y-132454819D01*
X177976190Y-132454819D02*
X177738095Y-132454819D01*
X177738095Y-132454819D02*
X177642857Y-132407200D01*
X177642857Y-132407200D02*
X177595238Y-132359580D01*
X109509580Y-82666666D02*
X109557200Y-82714285D01*
X109557200Y-82714285D02*
X109604819Y-82857142D01*
X109604819Y-82857142D02*
X109604819Y-82952380D01*
X109604819Y-82952380D02*
X109557200Y-83095237D01*
X109557200Y-83095237D02*
X109461961Y-83190475D01*
X109461961Y-83190475D02*
X109366723Y-83238094D01*
X109366723Y-83238094D02*
X109176247Y-83285713D01*
X109176247Y-83285713D02*
X109033390Y-83285713D01*
X109033390Y-83285713D02*
X108842914Y-83238094D01*
X108842914Y-83238094D02*
X108747676Y-83190475D01*
X108747676Y-83190475D02*
X108652438Y-83095237D01*
X108652438Y-83095237D02*
X108604819Y-82952380D01*
X108604819Y-82952380D02*
X108604819Y-82857142D01*
X108604819Y-82857142D02*
X108652438Y-82714285D01*
X108652438Y-82714285D02*
X108700057Y-82666666D01*
X109604819Y-81714285D02*
X109604819Y-82285713D01*
X109604819Y-81999999D02*
X108604819Y-81999999D01*
X108604819Y-81999999D02*
X108747676Y-82095237D01*
X108747676Y-82095237D02*
X108842914Y-82190475D01*
X108842914Y-82190475D02*
X108890533Y-82285713D01*
X177666666Y-62107319D02*
X177666666Y-62821604D01*
X177666666Y-62821604D02*
X177619047Y-62964461D01*
X177619047Y-62964461D02*
X177523809Y-63059700D01*
X177523809Y-63059700D02*
X177380952Y-63107319D01*
X177380952Y-63107319D02*
X177285714Y-63107319D01*
X178047619Y-62107319D02*
X178666666Y-62107319D01*
X178666666Y-62107319D02*
X178333333Y-62488271D01*
X178333333Y-62488271D02*
X178476190Y-62488271D01*
X178476190Y-62488271D02*
X178571428Y-62535890D01*
X178571428Y-62535890D02*
X178619047Y-62583509D01*
X178619047Y-62583509D02*
X178666666Y-62678747D01*
X178666666Y-62678747D02*
X178666666Y-62916842D01*
X178666666Y-62916842D02*
X178619047Y-63012080D01*
X178619047Y-63012080D02*
X178571428Y-63059700D01*
X178571428Y-63059700D02*
X178476190Y-63107319D01*
X178476190Y-63107319D02*
X178190476Y-63107319D01*
X178190476Y-63107319D02*
X178095238Y-63059700D01*
X178095238Y-63059700D02*
X178047619Y-63012080D01*
X102931009Y-81583333D02*
X102931009Y-81916666D01*
X103454819Y-81916666D02*
X102454819Y-81916666D01*
X102454819Y-81916666D02*
X102454819Y-81440476D01*
X102550057Y-81107142D02*
X102502438Y-81059523D01*
X102502438Y-81059523D02*
X102454819Y-80964285D01*
X102454819Y-80964285D02*
X102454819Y-80726190D01*
X102454819Y-80726190D02*
X102502438Y-80630952D01*
X102502438Y-80630952D02*
X102550057Y-80583333D01*
X102550057Y-80583333D02*
X102645295Y-80535714D01*
X102645295Y-80535714D02*
X102740533Y-80535714D01*
X102740533Y-80535714D02*
X102883390Y-80583333D01*
X102883390Y-80583333D02*
X103454819Y-81154761D01*
X103454819Y-81154761D02*
X103454819Y-80535714D01*
X124174819Y-72142857D02*
X123698628Y-72476190D01*
X124174819Y-72714285D02*
X123174819Y-72714285D01*
X123174819Y-72714285D02*
X123174819Y-72333333D01*
X123174819Y-72333333D02*
X123222438Y-72238095D01*
X123222438Y-72238095D02*
X123270057Y-72190476D01*
X123270057Y-72190476D02*
X123365295Y-72142857D01*
X123365295Y-72142857D02*
X123508152Y-72142857D01*
X123508152Y-72142857D02*
X123603390Y-72190476D01*
X123603390Y-72190476D02*
X123651009Y-72238095D01*
X123651009Y-72238095D02*
X123698628Y-72333333D01*
X123698628Y-72333333D02*
X123698628Y-72714285D01*
X124174819Y-71190476D02*
X124174819Y-71761904D01*
X124174819Y-71476190D02*
X123174819Y-71476190D01*
X123174819Y-71476190D02*
X123317676Y-71571428D01*
X123317676Y-71571428D02*
X123412914Y-71666666D01*
X123412914Y-71666666D02*
X123460533Y-71761904D01*
X123508152Y-70333333D02*
X124174819Y-70333333D01*
X123127200Y-70571428D02*
X123841485Y-70809523D01*
X123841485Y-70809523D02*
X123841485Y-70190476D01*
X89954819Y-134809523D02*
X90669104Y-134809523D01*
X90669104Y-134809523D02*
X90811961Y-134857142D01*
X90811961Y-134857142D02*
X90907200Y-134952380D01*
X90907200Y-134952380D02*
X90954819Y-135095237D01*
X90954819Y-135095237D02*
X90954819Y-135190475D01*
X90954819Y-134333332D02*
X89954819Y-134333332D01*
X89954819Y-134333332D02*
X89954819Y-133952380D01*
X89954819Y-133952380D02*
X90002438Y-133857142D01*
X90002438Y-133857142D02*
X90050057Y-133809523D01*
X90050057Y-133809523D02*
X90145295Y-133761904D01*
X90145295Y-133761904D02*
X90288152Y-133761904D01*
X90288152Y-133761904D02*
X90383390Y-133809523D01*
X90383390Y-133809523D02*
X90431009Y-133857142D01*
X90431009Y-133857142D02*
X90478628Y-133952380D01*
X90478628Y-133952380D02*
X90478628Y-134333332D01*
X90954819Y-132809523D02*
X90954819Y-133380951D01*
X90954819Y-133095237D02*
X89954819Y-133095237D01*
X89954819Y-133095237D02*
X90097676Y-133190475D01*
X90097676Y-133190475D02*
X90192914Y-133285713D01*
X90192914Y-133285713D02*
X90240533Y-133380951D01*
X89954819Y-131904761D02*
X89954819Y-132380951D01*
X89954819Y-132380951D02*
X90431009Y-132428570D01*
X90431009Y-132428570D02*
X90383390Y-132380951D01*
X90383390Y-132380951D02*
X90335771Y-132285713D01*
X90335771Y-132285713D02*
X90335771Y-132047618D01*
X90335771Y-132047618D02*
X90383390Y-131952380D01*
X90383390Y-131952380D02*
X90431009Y-131904761D01*
X90431009Y-131904761D02*
X90526247Y-131857142D01*
X90526247Y-131857142D02*
X90764342Y-131857142D01*
X90764342Y-131857142D02*
X90859580Y-131904761D01*
X90859580Y-131904761D02*
X90907200Y-131952380D01*
X90907200Y-131952380D02*
X90954819Y-132047618D01*
X90954819Y-132047618D02*
X90954819Y-132285713D01*
X90954819Y-132285713D02*
X90907200Y-132380951D01*
X90907200Y-132380951D02*
X90859580Y-132428570D01*
X182333333Y-109509580D02*
X182285714Y-109557200D01*
X182285714Y-109557200D02*
X182142857Y-109604819D01*
X182142857Y-109604819D02*
X182047619Y-109604819D01*
X182047619Y-109604819D02*
X181904762Y-109557200D01*
X181904762Y-109557200D02*
X181809524Y-109461961D01*
X181809524Y-109461961D02*
X181761905Y-109366723D01*
X181761905Y-109366723D02*
X181714286Y-109176247D01*
X181714286Y-109176247D02*
X181714286Y-109033390D01*
X181714286Y-109033390D02*
X181761905Y-108842914D01*
X181761905Y-108842914D02*
X181809524Y-108747676D01*
X181809524Y-108747676D02*
X181904762Y-108652438D01*
X181904762Y-108652438D02*
X182047619Y-108604819D01*
X182047619Y-108604819D02*
X182142857Y-108604819D01*
X182142857Y-108604819D02*
X182285714Y-108652438D01*
X182285714Y-108652438D02*
X182333333Y-108700057D01*
X183190476Y-108938152D02*
X183190476Y-109604819D01*
X182952381Y-108557200D02*
X182714286Y-109271485D01*
X182714286Y-109271485D02*
X183333333Y-109271485D01*
X177302319Y-84238094D02*
X176302319Y-84238094D01*
X176302319Y-84238094D02*
X176302319Y-83999999D01*
X176302319Y-83999999D02*
X176349938Y-83857142D01*
X176349938Y-83857142D02*
X176445176Y-83761904D01*
X176445176Y-83761904D02*
X176540414Y-83714285D01*
X176540414Y-83714285D02*
X176730890Y-83666666D01*
X176730890Y-83666666D02*
X176873747Y-83666666D01*
X176873747Y-83666666D02*
X177064223Y-83714285D01*
X177064223Y-83714285D02*
X177159461Y-83761904D01*
X177159461Y-83761904D02*
X177254700Y-83857142D01*
X177254700Y-83857142D02*
X177302319Y-83999999D01*
X177302319Y-83999999D02*
X177302319Y-84238094D01*
X177302319Y-82714285D02*
X177302319Y-83285713D01*
X177302319Y-82999999D02*
X176302319Y-82999999D01*
X176302319Y-82999999D02*
X176445176Y-83095237D01*
X176445176Y-83095237D02*
X176540414Y-83190475D01*
X176540414Y-83190475D02*
X176588033Y-83285713D01*
X105190476Y-99454819D02*
X105190476Y-100169104D01*
X105190476Y-100169104D02*
X105142857Y-100311961D01*
X105142857Y-100311961D02*
X105047619Y-100407200D01*
X105047619Y-100407200D02*
X104904762Y-100454819D01*
X104904762Y-100454819D02*
X104809524Y-100454819D01*
X105666667Y-100454819D02*
X105666667Y-99454819D01*
X105666667Y-99454819D02*
X106047619Y-99454819D01*
X106047619Y-99454819D02*
X106142857Y-99502438D01*
X106142857Y-99502438D02*
X106190476Y-99550057D01*
X106190476Y-99550057D02*
X106238095Y-99645295D01*
X106238095Y-99645295D02*
X106238095Y-99788152D01*
X106238095Y-99788152D02*
X106190476Y-99883390D01*
X106190476Y-99883390D02*
X106142857Y-99931009D01*
X106142857Y-99931009D02*
X106047619Y-99978628D01*
X106047619Y-99978628D02*
X105666667Y-99978628D01*
X106619048Y-99550057D02*
X106666667Y-99502438D01*
X106666667Y-99502438D02*
X106761905Y-99454819D01*
X106761905Y-99454819D02*
X107000000Y-99454819D01*
X107000000Y-99454819D02*
X107095238Y-99502438D01*
X107095238Y-99502438D02*
X107142857Y-99550057D01*
X107142857Y-99550057D02*
X107190476Y-99645295D01*
X107190476Y-99645295D02*
X107190476Y-99740533D01*
X107190476Y-99740533D02*
X107142857Y-99883390D01*
X107142857Y-99883390D02*
X106571429Y-100454819D01*
X106571429Y-100454819D02*
X107190476Y-100454819D01*
X107523810Y-99454819D02*
X108190476Y-99454819D01*
X108190476Y-99454819D02*
X107761905Y-100454819D01*
X112054819Y-142031904D02*
X112864342Y-142031904D01*
X112864342Y-142031904D02*
X112959580Y-141984285D01*
X112959580Y-141984285D02*
X113007200Y-141936666D01*
X113007200Y-141936666D02*
X113054819Y-141841428D01*
X113054819Y-141841428D02*
X113054819Y-141650952D01*
X113054819Y-141650952D02*
X113007200Y-141555714D01*
X113007200Y-141555714D02*
X112959580Y-141508095D01*
X112959580Y-141508095D02*
X112864342Y-141460476D01*
X112864342Y-141460476D02*
X112054819Y-141460476D01*
X112054819Y-140508095D02*
X112054819Y-140984285D01*
X112054819Y-140984285D02*
X112531009Y-141031904D01*
X112531009Y-141031904D02*
X112483390Y-140984285D01*
X112483390Y-140984285D02*
X112435771Y-140889047D01*
X112435771Y-140889047D02*
X112435771Y-140650952D01*
X112435771Y-140650952D02*
X112483390Y-140555714D01*
X112483390Y-140555714D02*
X112531009Y-140508095D01*
X112531009Y-140508095D02*
X112626247Y-140460476D01*
X112626247Y-140460476D02*
X112864342Y-140460476D01*
X112864342Y-140460476D02*
X112959580Y-140508095D01*
X112959580Y-140508095D02*
X113007200Y-140555714D01*
X113007200Y-140555714D02*
X113054819Y-140650952D01*
X113054819Y-140650952D02*
X113054819Y-140889047D01*
X113054819Y-140889047D02*
X113007200Y-140984285D01*
X113007200Y-140984285D02*
X112959580Y-141031904D01*
X128333333Y-56509580D02*
X128285714Y-56557200D01*
X128285714Y-56557200D02*
X128142857Y-56604819D01*
X128142857Y-56604819D02*
X128047619Y-56604819D01*
X128047619Y-56604819D02*
X127904762Y-56557200D01*
X127904762Y-56557200D02*
X127809524Y-56461961D01*
X127809524Y-56461961D02*
X127761905Y-56366723D01*
X127761905Y-56366723D02*
X127714286Y-56176247D01*
X127714286Y-56176247D02*
X127714286Y-56033390D01*
X127714286Y-56033390D02*
X127761905Y-55842914D01*
X127761905Y-55842914D02*
X127809524Y-55747676D01*
X127809524Y-55747676D02*
X127904762Y-55652438D01*
X127904762Y-55652438D02*
X128047619Y-55604819D01*
X128047619Y-55604819D02*
X128142857Y-55604819D01*
X128142857Y-55604819D02*
X128285714Y-55652438D01*
X128285714Y-55652438D02*
X128333333Y-55700057D01*
X129238095Y-55604819D02*
X128761905Y-55604819D01*
X128761905Y-55604819D02*
X128714286Y-56081009D01*
X128714286Y-56081009D02*
X128761905Y-56033390D01*
X128761905Y-56033390D02*
X128857143Y-55985771D01*
X128857143Y-55985771D02*
X129095238Y-55985771D01*
X129095238Y-55985771D02*
X129190476Y-56033390D01*
X129190476Y-56033390D02*
X129238095Y-56081009D01*
X129238095Y-56081009D02*
X129285714Y-56176247D01*
X129285714Y-56176247D02*
X129285714Y-56414342D01*
X129285714Y-56414342D02*
X129238095Y-56509580D01*
X129238095Y-56509580D02*
X129190476Y-56557200D01*
X129190476Y-56557200D02*
X129095238Y-56604819D01*
X129095238Y-56604819D02*
X128857143Y-56604819D01*
X128857143Y-56604819D02*
X128761905Y-56557200D01*
X128761905Y-56557200D02*
X128714286Y-56509580D01*
X137833333Y-141234819D02*
X137500000Y-140758628D01*
X137261905Y-141234819D02*
X137261905Y-140234819D01*
X137261905Y-140234819D02*
X137642857Y-140234819D01*
X137642857Y-140234819D02*
X137738095Y-140282438D01*
X137738095Y-140282438D02*
X137785714Y-140330057D01*
X137785714Y-140330057D02*
X137833333Y-140425295D01*
X137833333Y-140425295D02*
X137833333Y-140568152D01*
X137833333Y-140568152D02*
X137785714Y-140663390D01*
X137785714Y-140663390D02*
X137738095Y-140711009D01*
X137738095Y-140711009D02*
X137642857Y-140758628D01*
X137642857Y-140758628D02*
X137261905Y-140758628D01*
X138738095Y-140234819D02*
X138261905Y-140234819D01*
X138261905Y-140234819D02*
X138214286Y-140711009D01*
X138214286Y-140711009D02*
X138261905Y-140663390D01*
X138261905Y-140663390D02*
X138357143Y-140615771D01*
X138357143Y-140615771D02*
X138595238Y-140615771D01*
X138595238Y-140615771D02*
X138690476Y-140663390D01*
X138690476Y-140663390D02*
X138738095Y-140711009D01*
X138738095Y-140711009D02*
X138785714Y-140806247D01*
X138785714Y-140806247D02*
X138785714Y-141044342D01*
X138785714Y-141044342D02*
X138738095Y-141139580D01*
X138738095Y-141139580D02*
X138690476Y-141187200D01*
X138690476Y-141187200D02*
X138595238Y-141234819D01*
X138595238Y-141234819D02*
X138357143Y-141234819D01*
X138357143Y-141234819D02*
X138261905Y-141187200D01*
X138261905Y-141187200D02*
X138214286Y-141139580D01*
X112954819Y-65833333D02*
X113669104Y-65833333D01*
X113669104Y-65833333D02*
X113811961Y-65880952D01*
X113811961Y-65880952D02*
X113907200Y-65976190D01*
X113907200Y-65976190D02*
X113954819Y-66119047D01*
X113954819Y-66119047D02*
X113954819Y-66214285D01*
X113954819Y-65357142D02*
X112954819Y-65357142D01*
X112954819Y-65357142D02*
X112954819Y-64976190D01*
X112954819Y-64976190D02*
X113002438Y-64880952D01*
X113002438Y-64880952D02*
X113050057Y-64833333D01*
X113050057Y-64833333D02*
X113145295Y-64785714D01*
X113145295Y-64785714D02*
X113288152Y-64785714D01*
X113288152Y-64785714D02*
X113383390Y-64833333D01*
X113383390Y-64833333D02*
X113431009Y-64880952D01*
X113431009Y-64880952D02*
X113478628Y-64976190D01*
X113478628Y-64976190D02*
X113478628Y-65357142D01*
X112954819Y-64452380D02*
X112954819Y-63833333D01*
X112954819Y-63833333D02*
X113335771Y-64166666D01*
X113335771Y-64166666D02*
X113335771Y-64023809D01*
X113335771Y-64023809D02*
X113383390Y-63928571D01*
X113383390Y-63928571D02*
X113431009Y-63880952D01*
X113431009Y-63880952D02*
X113526247Y-63833333D01*
X113526247Y-63833333D02*
X113764342Y-63833333D01*
X113764342Y-63833333D02*
X113859580Y-63880952D01*
X113859580Y-63880952D02*
X113907200Y-63928571D01*
X113907200Y-63928571D02*
X113954819Y-64023809D01*
X113954819Y-64023809D02*
X113954819Y-64309523D01*
X113954819Y-64309523D02*
X113907200Y-64404761D01*
X113907200Y-64404761D02*
X113859580Y-64452380D01*
X160454819Y-114301904D02*
X161264342Y-114301904D01*
X161264342Y-114301904D02*
X161359580Y-114254285D01*
X161359580Y-114254285D02*
X161407200Y-114206666D01*
X161407200Y-114206666D02*
X161454819Y-114111428D01*
X161454819Y-114111428D02*
X161454819Y-113920952D01*
X161454819Y-113920952D02*
X161407200Y-113825714D01*
X161407200Y-113825714D02*
X161359580Y-113778095D01*
X161359580Y-113778095D02*
X161264342Y-113730476D01*
X161264342Y-113730476D02*
X160454819Y-113730476D01*
X160883390Y-113111428D02*
X160835771Y-113206666D01*
X160835771Y-113206666D02*
X160788152Y-113254285D01*
X160788152Y-113254285D02*
X160692914Y-113301904D01*
X160692914Y-113301904D02*
X160645295Y-113301904D01*
X160645295Y-113301904D02*
X160550057Y-113254285D01*
X160550057Y-113254285D02*
X160502438Y-113206666D01*
X160502438Y-113206666D02*
X160454819Y-113111428D01*
X160454819Y-113111428D02*
X160454819Y-112920952D01*
X160454819Y-112920952D02*
X160502438Y-112825714D01*
X160502438Y-112825714D02*
X160550057Y-112778095D01*
X160550057Y-112778095D02*
X160645295Y-112730476D01*
X160645295Y-112730476D02*
X160692914Y-112730476D01*
X160692914Y-112730476D02*
X160788152Y-112778095D01*
X160788152Y-112778095D02*
X160835771Y-112825714D01*
X160835771Y-112825714D02*
X160883390Y-112920952D01*
X160883390Y-112920952D02*
X160883390Y-113111428D01*
X160883390Y-113111428D02*
X160931009Y-113206666D01*
X160931009Y-113206666D02*
X160978628Y-113254285D01*
X160978628Y-113254285D02*
X161073866Y-113301904D01*
X161073866Y-113301904D02*
X161264342Y-113301904D01*
X161264342Y-113301904D02*
X161359580Y-113254285D01*
X161359580Y-113254285D02*
X161407200Y-113206666D01*
X161407200Y-113206666D02*
X161454819Y-113111428D01*
X161454819Y-113111428D02*
X161454819Y-112920952D01*
X161454819Y-112920952D02*
X161407200Y-112825714D01*
X161407200Y-112825714D02*
X161359580Y-112778095D01*
X161359580Y-112778095D02*
X161264342Y-112730476D01*
X161264342Y-112730476D02*
X161073866Y-112730476D01*
X161073866Y-112730476D02*
X160978628Y-112778095D01*
X160978628Y-112778095D02*
X160931009Y-112825714D01*
X160931009Y-112825714D02*
X160883390Y-112920952D01*
X158734819Y-71642857D02*
X158258628Y-71976190D01*
X158734819Y-72214285D02*
X157734819Y-72214285D01*
X157734819Y-72214285D02*
X157734819Y-71833333D01*
X157734819Y-71833333D02*
X157782438Y-71738095D01*
X157782438Y-71738095D02*
X157830057Y-71690476D01*
X157830057Y-71690476D02*
X157925295Y-71642857D01*
X157925295Y-71642857D02*
X158068152Y-71642857D01*
X158068152Y-71642857D02*
X158163390Y-71690476D01*
X158163390Y-71690476D02*
X158211009Y-71738095D01*
X158211009Y-71738095D02*
X158258628Y-71833333D01*
X158258628Y-71833333D02*
X158258628Y-72214285D01*
X158734819Y-70690476D02*
X158734819Y-71261904D01*
X158734819Y-70976190D02*
X157734819Y-70976190D01*
X157734819Y-70976190D02*
X157877676Y-71071428D01*
X157877676Y-71071428D02*
X157972914Y-71166666D01*
X157972914Y-71166666D02*
X158020533Y-71261904D01*
X158734819Y-69738095D02*
X158734819Y-70309523D01*
X158734819Y-70023809D02*
X157734819Y-70023809D01*
X157734819Y-70023809D02*
X157877676Y-70119047D01*
X157877676Y-70119047D02*
X157972914Y-70214285D01*
X157972914Y-70214285D02*
X158020533Y-70309523D01*
X108454819Y-74833333D02*
X109169104Y-74833333D01*
X109169104Y-74833333D02*
X109311961Y-74880952D01*
X109311961Y-74880952D02*
X109407200Y-74976190D01*
X109407200Y-74976190D02*
X109454819Y-75119047D01*
X109454819Y-75119047D02*
X109454819Y-75214285D01*
X109454819Y-74357142D02*
X108454819Y-74357142D01*
X108454819Y-74357142D02*
X108454819Y-73976190D01*
X108454819Y-73976190D02*
X108502438Y-73880952D01*
X108502438Y-73880952D02*
X108550057Y-73833333D01*
X108550057Y-73833333D02*
X108645295Y-73785714D01*
X108645295Y-73785714D02*
X108788152Y-73785714D01*
X108788152Y-73785714D02*
X108883390Y-73833333D01*
X108883390Y-73833333D02*
X108931009Y-73880952D01*
X108931009Y-73880952D02*
X108978628Y-73976190D01*
X108978628Y-73976190D02*
X108978628Y-74357142D01*
X108788152Y-72928571D02*
X109454819Y-72928571D01*
X108407200Y-73166666D02*
X109121485Y-73404761D01*
X109121485Y-73404761D02*
X109121485Y-72785714D01*
X161738095Y-88954819D02*
X162309523Y-88954819D01*
X162023809Y-89954819D02*
X162023809Y-88954819D01*
X162642857Y-89954819D02*
X162642857Y-88954819D01*
X162642857Y-88954819D02*
X163023809Y-88954819D01*
X163023809Y-88954819D02*
X163119047Y-89002438D01*
X163119047Y-89002438D02*
X163166666Y-89050057D01*
X163166666Y-89050057D02*
X163214285Y-89145295D01*
X163214285Y-89145295D02*
X163214285Y-89288152D01*
X163214285Y-89288152D02*
X163166666Y-89383390D01*
X163166666Y-89383390D02*
X163119047Y-89431009D01*
X163119047Y-89431009D02*
X163023809Y-89478628D01*
X163023809Y-89478628D02*
X162642857Y-89478628D01*
X164071428Y-89288152D02*
X164071428Y-89954819D01*
X163833333Y-88907200D02*
X163595238Y-89621485D01*
X163595238Y-89621485D02*
X164214285Y-89621485D01*
X171674819Y-121666666D02*
X171198628Y-121999999D01*
X171674819Y-122238094D02*
X170674819Y-122238094D01*
X170674819Y-122238094D02*
X170674819Y-121857142D01*
X170674819Y-121857142D02*
X170722438Y-121761904D01*
X170722438Y-121761904D02*
X170770057Y-121714285D01*
X170770057Y-121714285D02*
X170865295Y-121666666D01*
X170865295Y-121666666D02*
X171008152Y-121666666D01*
X171008152Y-121666666D02*
X171103390Y-121714285D01*
X171103390Y-121714285D02*
X171151009Y-121761904D01*
X171151009Y-121761904D02*
X171198628Y-121857142D01*
X171198628Y-121857142D02*
X171198628Y-122238094D01*
X170674819Y-121333332D02*
X170674819Y-120714285D01*
X170674819Y-120714285D02*
X171055771Y-121047618D01*
X171055771Y-121047618D02*
X171055771Y-120904761D01*
X171055771Y-120904761D02*
X171103390Y-120809523D01*
X171103390Y-120809523D02*
X171151009Y-120761904D01*
X171151009Y-120761904D02*
X171246247Y-120714285D01*
X171246247Y-120714285D02*
X171484342Y-120714285D01*
X171484342Y-120714285D02*
X171579580Y-120761904D01*
X171579580Y-120761904D02*
X171627200Y-120809523D01*
X171627200Y-120809523D02*
X171674819Y-120904761D01*
X171674819Y-120904761D02*
X171674819Y-121190475D01*
X171674819Y-121190475D02*
X171627200Y-121285713D01*
X171627200Y-121285713D02*
X171579580Y-121333332D01*
X173238095Y-112954819D02*
X173809523Y-112954819D01*
X173523809Y-113954819D02*
X173523809Y-112954819D01*
X174142857Y-113954819D02*
X174142857Y-112954819D01*
X174142857Y-112954819D02*
X174523809Y-112954819D01*
X174523809Y-112954819D02*
X174619047Y-113002438D01*
X174619047Y-113002438D02*
X174666666Y-113050057D01*
X174666666Y-113050057D02*
X174714285Y-113145295D01*
X174714285Y-113145295D02*
X174714285Y-113288152D01*
X174714285Y-113288152D02*
X174666666Y-113383390D01*
X174666666Y-113383390D02*
X174619047Y-113431009D01*
X174619047Y-113431009D02*
X174523809Y-113478628D01*
X174523809Y-113478628D02*
X174142857Y-113478628D01*
X175571428Y-112954819D02*
X175380952Y-112954819D01*
X175380952Y-112954819D02*
X175285714Y-113002438D01*
X175285714Y-113002438D02*
X175238095Y-113050057D01*
X175238095Y-113050057D02*
X175142857Y-113192914D01*
X175142857Y-113192914D02*
X175095238Y-113383390D01*
X175095238Y-113383390D02*
X175095238Y-113764342D01*
X175095238Y-113764342D02*
X175142857Y-113859580D01*
X175142857Y-113859580D02*
X175190476Y-113907200D01*
X175190476Y-113907200D02*
X175285714Y-113954819D01*
X175285714Y-113954819D02*
X175476190Y-113954819D01*
X175476190Y-113954819D02*
X175571428Y-113907200D01*
X175571428Y-113907200D02*
X175619047Y-113859580D01*
X175619047Y-113859580D02*
X175666666Y-113764342D01*
X175666666Y-113764342D02*
X175666666Y-113526247D01*
X175666666Y-113526247D02*
X175619047Y-113431009D01*
X175619047Y-113431009D02*
X175571428Y-113383390D01*
X175571428Y-113383390D02*
X175476190Y-113335771D01*
X175476190Y-113335771D02*
X175285714Y-113335771D01*
X175285714Y-113335771D02*
X175190476Y-113383390D01*
X175190476Y-113383390D02*
X175142857Y-113431009D01*
X175142857Y-113431009D02*
X175095238Y-113526247D01*
X122357142Y-58174819D02*
X122023809Y-57698628D01*
X121785714Y-58174819D02*
X121785714Y-57174819D01*
X121785714Y-57174819D02*
X122166666Y-57174819D01*
X122166666Y-57174819D02*
X122261904Y-57222438D01*
X122261904Y-57222438D02*
X122309523Y-57270057D01*
X122309523Y-57270057D02*
X122357142Y-57365295D01*
X122357142Y-57365295D02*
X122357142Y-57508152D01*
X122357142Y-57508152D02*
X122309523Y-57603390D01*
X122309523Y-57603390D02*
X122261904Y-57651009D01*
X122261904Y-57651009D02*
X122166666Y-57698628D01*
X122166666Y-57698628D02*
X121785714Y-57698628D01*
X123309523Y-58174819D02*
X122738095Y-58174819D01*
X123023809Y-58174819D02*
X123023809Y-57174819D01*
X123023809Y-57174819D02*
X122928571Y-57317676D01*
X122928571Y-57317676D02*
X122833333Y-57412914D01*
X122833333Y-57412914D02*
X122738095Y-57460533D01*
X123642857Y-57174819D02*
X124261904Y-57174819D01*
X124261904Y-57174819D02*
X123928571Y-57555771D01*
X123928571Y-57555771D02*
X124071428Y-57555771D01*
X124071428Y-57555771D02*
X124166666Y-57603390D01*
X124166666Y-57603390D02*
X124214285Y-57651009D01*
X124214285Y-57651009D02*
X124261904Y-57746247D01*
X124261904Y-57746247D02*
X124261904Y-57984342D01*
X124261904Y-57984342D02*
X124214285Y-58079580D01*
X124214285Y-58079580D02*
X124166666Y-58127200D01*
X124166666Y-58127200D02*
X124071428Y-58174819D01*
X124071428Y-58174819D02*
X123785714Y-58174819D01*
X123785714Y-58174819D02*
X123690476Y-58127200D01*
X123690476Y-58127200D02*
X123642857Y-58079580D01*
X99190476Y-120454819D02*
X99190476Y-121169104D01*
X99190476Y-121169104D02*
X99142857Y-121311961D01*
X99142857Y-121311961D02*
X99047619Y-121407200D01*
X99047619Y-121407200D02*
X98904762Y-121454819D01*
X98904762Y-121454819D02*
X98809524Y-121454819D01*
X99666667Y-121454819D02*
X99666667Y-120454819D01*
X99666667Y-120454819D02*
X100047619Y-120454819D01*
X100047619Y-120454819D02*
X100142857Y-120502438D01*
X100142857Y-120502438D02*
X100190476Y-120550057D01*
X100190476Y-120550057D02*
X100238095Y-120645295D01*
X100238095Y-120645295D02*
X100238095Y-120788152D01*
X100238095Y-120788152D02*
X100190476Y-120883390D01*
X100190476Y-120883390D02*
X100142857Y-120931009D01*
X100142857Y-120931009D02*
X100047619Y-120978628D01*
X100047619Y-120978628D02*
X99666667Y-120978628D01*
X101190476Y-121454819D02*
X100619048Y-121454819D01*
X100904762Y-121454819D02*
X100904762Y-120454819D01*
X100904762Y-120454819D02*
X100809524Y-120597676D01*
X100809524Y-120597676D02*
X100714286Y-120692914D01*
X100714286Y-120692914D02*
X100619048Y-120740533D01*
X101666667Y-121454819D02*
X101857143Y-121454819D01*
X101857143Y-121454819D02*
X101952381Y-121407200D01*
X101952381Y-121407200D02*
X102000000Y-121359580D01*
X102000000Y-121359580D02*
X102095238Y-121216723D01*
X102095238Y-121216723D02*
X102142857Y-121026247D01*
X102142857Y-121026247D02*
X102142857Y-120645295D01*
X102142857Y-120645295D02*
X102095238Y-120550057D01*
X102095238Y-120550057D02*
X102047619Y-120502438D01*
X102047619Y-120502438D02*
X101952381Y-120454819D01*
X101952381Y-120454819D02*
X101761905Y-120454819D01*
X101761905Y-120454819D02*
X101666667Y-120502438D01*
X101666667Y-120502438D02*
X101619048Y-120550057D01*
X101619048Y-120550057D02*
X101571429Y-120645295D01*
X101571429Y-120645295D02*
X101571429Y-120883390D01*
X101571429Y-120883390D02*
X101619048Y-120978628D01*
X101619048Y-120978628D02*
X101666667Y-121026247D01*
X101666667Y-121026247D02*
X101761905Y-121073866D01*
X101761905Y-121073866D02*
X101952381Y-121073866D01*
X101952381Y-121073866D02*
X102047619Y-121026247D01*
X102047619Y-121026247D02*
X102095238Y-120978628D01*
X102095238Y-120978628D02*
X102142857Y-120883390D01*
X167404761Y-108154819D02*
X167071428Y-107678628D01*
X166833333Y-108154819D02*
X166833333Y-107154819D01*
X166833333Y-107154819D02*
X167214285Y-107154819D01*
X167214285Y-107154819D02*
X167309523Y-107202438D01*
X167309523Y-107202438D02*
X167357142Y-107250057D01*
X167357142Y-107250057D02*
X167404761Y-107345295D01*
X167404761Y-107345295D02*
X167404761Y-107488152D01*
X167404761Y-107488152D02*
X167357142Y-107583390D01*
X167357142Y-107583390D02*
X167309523Y-107631009D01*
X167309523Y-107631009D02*
X167214285Y-107678628D01*
X167214285Y-107678628D02*
X166833333Y-107678628D01*
X167690476Y-107154819D02*
X168023809Y-108154819D01*
X168023809Y-108154819D02*
X168357142Y-107154819D01*
X169214285Y-108154819D02*
X168642857Y-108154819D01*
X168928571Y-108154819D02*
X168928571Y-107154819D01*
X168928571Y-107154819D02*
X168833333Y-107297676D01*
X168833333Y-107297676D02*
X168738095Y-107392914D01*
X168738095Y-107392914D02*
X168642857Y-107440533D01*
X118454819Y-135833333D02*
X119169104Y-135833333D01*
X119169104Y-135833333D02*
X119311961Y-135880952D01*
X119311961Y-135880952D02*
X119407200Y-135976190D01*
X119407200Y-135976190D02*
X119454819Y-136119047D01*
X119454819Y-136119047D02*
X119454819Y-136214285D01*
X119454819Y-135357142D02*
X118454819Y-135357142D01*
X118454819Y-135357142D02*
X118454819Y-134976190D01*
X118454819Y-134976190D02*
X118502438Y-134880952D01*
X118502438Y-134880952D02*
X118550057Y-134833333D01*
X118550057Y-134833333D02*
X118645295Y-134785714D01*
X118645295Y-134785714D02*
X118788152Y-134785714D01*
X118788152Y-134785714D02*
X118883390Y-134833333D01*
X118883390Y-134833333D02*
X118931009Y-134880952D01*
X118931009Y-134880952D02*
X118978628Y-134976190D01*
X118978628Y-134976190D02*
X118978628Y-135357142D01*
X118454819Y-133928571D02*
X118454819Y-134119047D01*
X118454819Y-134119047D02*
X118502438Y-134214285D01*
X118502438Y-134214285D02*
X118550057Y-134261904D01*
X118550057Y-134261904D02*
X118692914Y-134357142D01*
X118692914Y-134357142D02*
X118883390Y-134404761D01*
X118883390Y-134404761D02*
X119264342Y-134404761D01*
X119264342Y-134404761D02*
X119359580Y-134357142D01*
X119359580Y-134357142D02*
X119407200Y-134309523D01*
X119407200Y-134309523D02*
X119454819Y-134214285D01*
X119454819Y-134214285D02*
X119454819Y-134023809D01*
X119454819Y-134023809D02*
X119407200Y-133928571D01*
X119407200Y-133928571D02*
X119359580Y-133880952D01*
X119359580Y-133880952D02*
X119264342Y-133833333D01*
X119264342Y-133833333D02*
X119026247Y-133833333D01*
X119026247Y-133833333D02*
X118931009Y-133880952D01*
X118931009Y-133880952D02*
X118883390Y-133928571D01*
X118883390Y-133928571D02*
X118835771Y-134023809D01*
X118835771Y-134023809D02*
X118835771Y-134214285D01*
X118835771Y-134214285D02*
X118883390Y-134309523D01*
X118883390Y-134309523D02*
X118931009Y-134357142D01*
X118931009Y-134357142D02*
X119026247Y-134404761D01*
X97190476Y-131954819D02*
X97190476Y-132669104D01*
X97190476Y-132669104D02*
X97142857Y-132811961D01*
X97142857Y-132811961D02*
X97047619Y-132907200D01*
X97047619Y-132907200D02*
X96904762Y-132954819D01*
X96904762Y-132954819D02*
X96809524Y-132954819D01*
X97666667Y-132954819D02*
X97666667Y-131954819D01*
X97666667Y-131954819D02*
X98047619Y-131954819D01*
X98047619Y-131954819D02*
X98142857Y-132002438D01*
X98142857Y-132002438D02*
X98190476Y-132050057D01*
X98190476Y-132050057D02*
X98238095Y-132145295D01*
X98238095Y-132145295D02*
X98238095Y-132288152D01*
X98238095Y-132288152D02*
X98190476Y-132383390D01*
X98190476Y-132383390D02*
X98142857Y-132431009D01*
X98142857Y-132431009D02*
X98047619Y-132478628D01*
X98047619Y-132478628D02*
X97666667Y-132478628D01*
X99190476Y-132954819D02*
X98619048Y-132954819D01*
X98904762Y-132954819D02*
X98904762Y-131954819D01*
X98904762Y-131954819D02*
X98809524Y-132097676D01*
X98809524Y-132097676D02*
X98714286Y-132192914D01*
X98714286Y-132192914D02*
X98619048Y-132240533D01*
X100047619Y-132288152D02*
X100047619Y-132954819D01*
X99809524Y-131907200D02*
X99571429Y-132621485D01*
X99571429Y-132621485D02*
X100190476Y-132621485D01*
X113690476Y-133954819D02*
X113690476Y-134669104D01*
X113690476Y-134669104D02*
X113642857Y-134811961D01*
X113642857Y-134811961D02*
X113547619Y-134907200D01*
X113547619Y-134907200D02*
X113404762Y-134954819D01*
X113404762Y-134954819D02*
X113309524Y-134954819D01*
X114166667Y-134954819D02*
X114166667Y-133954819D01*
X114166667Y-133954819D02*
X114547619Y-133954819D01*
X114547619Y-133954819D02*
X114642857Y-134002438D01*
X114642857Y-134002438D02*
X114690476Y-134050057D01*
X114690476Y-134050057D02*
X114738095Y-134145295D01*
X114738095Y-134145295D02*
X114738095Y-134288152D01*
X114738095Y-134288152D02*
X114690476Y-134383390D01*
X114690476Y-134383390D02*
X114642857Y-134431009D01*
X114642857Y-134431009D02*
X114547619Y-134478628D01*
X114547619Y-134478628D02*
X114166667Y-134478628D01*
X115690476Y-134954819D02*
X115119048Y-134954819D01*
X115404762Y-134954819D02*
X115404762Y-133954819D01*
X115404762Y-133954819D02*
X115309524Y-134097676D01*
X115309524Y-134097676D02*
X115214286Y-134192914D01*
X115214286Y-134192914D02*
X115119048Y-134240533D01*
X116309524Y-133954819D02*
X116404762Y-133954819D01*
X116404762Y-133954819D02*
X116500000Y-134002438D01*
X116500000Y-134002438D02*
X116547619Y-134050057D01*
X116547619Y-134050057D02*
X116595238Y-134145295D01*
X116595238Y-134145295D02*
X116642857Y-134335771D01*
X116642857Y-134335771D02*
X116642857Y-134573866D01*
X116642857Y-134573866D02*
X116595238Y-134764342D01*
X116595238Y-134764342D02*
X116547619Y-134859580D01*
X116547619Y-134859580D02*
X116500000Y-134907200D01*
X116500000Y-134907200D02*
X116404762Y-134954819D01*
X116404762Y-134954819D02*
X116309524Y-134954819D01*
X116309524Y-134954819D02*
X116214286Y-134907200D01*
X116214286Y-134907200D02*
X116166667Y-134859580D01*
X116166667Y-134859580D02*
X116119048Y-134764342D01*
X116119048Y-134764342D02*
X116071429Y-134573866D01*
X116071429Y-134573866D02*
X116071429Y-134335771D01*
X116071429Y-134335771D02*
X116119048Y-134145295D01*
X116119048Y-134145295D02*
X116166667Y-134050057D01*
X116166667Y-134050057D02*
X116214286Y-134002438D01*
X116214286Y-134002438D02*
X116309524Y-133954819D01*
D11*
%TO.C,U4*%
X111210000Y-129330000D02*
X93170000Y-129330000D01*
X111210000Y-120210000D02*
X111210000Y-129330000D01*
X109910000Y-128020000D02*
X94470000Y-128020000D01*
X109910000Y-121520000D02*
X109910000Y-128020000D01*
X106500000Y-118820000D02*
X105500000Y-118820000D01*
X106000000Y-119820000D02*
X106500000Y-118820000D01*
X105500000Y-118820000D02*
X106000000Y-119820000D01*
X104240000Y-121520000D02*
X109910000Y-121520000D01*
X104240000Y-120210000D02*
X104240000Y-121520000D01*
X100140000Y-121520000D02*
X100140000Y-120210000D01*
X94470000Y-128020000D02*
X94470000Y-121520000D01*
X94470000Y-121520000D02*
X100140000Y-121520000D01*
X93170000Y-129330000D02*
X93170000Y-120210000D01*
X93170000Y-120210000D02*
X111210000Y-120210000D01*
%TO.C,C2*%
X109280000Y-53830000D02*
X109974000Y-53830000D01*
X109280000Y-59170000D02*
X109280000Y-53830000D01*
X109974000Y-59170000D02*
X109280000Y-59170000D01*
X112026000Y-53830000D02*
X112720000Y-53830000D01*
X112720000Y-53830000D02*
X112720000Y-59170000D01*
X112720000Y-59170000D02*
X112026000Y-59170000D01*
%TO.C,Q2*%
X177847500Y-98130000D02*
X185887500Y-98130000D01*
X177847500Y-108870000D02*
X177847500Y-98130000D01*
X181467500Y-98938000D02*
X181467500Y-98130000D01*
X181467500Y-103870000D02*
X181467500Y-102562000D01*
X181467500Y-108870000D02*
X181467500Y-107630000D01*
X182467500Y-98938000D02*
X182467500Y-98130000D01*
X182467500Y-103870000D02*
X182467500Y-102562000D01*
X182467500Y-108870000D02*
X182467500Y-107630000D01*
X183767500Y-100207000D02*
X183767500Y-98130000D01*
X183767500Y-103870000D02*
X183767500Y-101293000D01*
X183767500Y-108870000D02*
X183767500Y-107630000D01*
X185887500Y-98130000D02*
X185887500Y-105450000D01*
X185887500Y-106050000D02*
X185887500Y-108870000D01*
X185887500Y-108870000D02*
X177847500Y-108870000D01*
X186497500Y-106190000D02*
X185887500Y-105750000D01*
X186497500Y-105310000D01*
X186497500Y-106190000D01*
G36*
X186497500Y-106190000D02*
G01*
X185887500Y-105750000D01*
X186497500Y-105310000D01*
X186497500Y-106190000D01*
G37*
%TO.C,JP1*%
X112230000Y-138500000D02*
X117770000Y-138500000D01*
X112230000Y-141500000D02*
X112230000Y-138500000D01*
X115000000Y-138500000D02*
X115000000Y-141500000D01*
X117770000Y-138500000D02*
X117770000Y-141500000D01*
X117770000Y-141500000D02*
X112230000Y-141500000D01*
%TO.C,R12*%
X148500000Y-63190000D02*
X148500000Y-63880000D01*
X148500000Y-73810000D02*
X148500000Y-73120000D01*
X146780000Y-73120000D02*
X150220000Y-73120000D01*
X150220000Y-63880000D01*
X146780000Y-63880000D01*
X146780000Y-73120000D01*
%TO.C,JP20*%
X104230000Y-117000000D02*
X109770000Y-117000000D01*
X104230000Y-120000000D02*
X104230000Y-117000000D01*
X107000000Y-120000000D02*
X107000000Y-117000000D01*
X109770000Y-117000000D02*
X109770000Y-120000000D01*
X109770000Y-120000000D02*
X104230000Y-120000000D01*
%TO.C,TP2*%
X171230000Y-114500000D02*
X176770000Y-114500000D01*
X171230000Y-117500000D02*
X171230000Y-114500000D01*
X174000000Y-114500000D02*
X174000000Y-117500000D01*
X176770000Y-114500000D02*
X176770000Y-117500000D01*
X176770000Y-117500000D02*
X171230000Y-117500000D01*
%TO.C,R8*%
X183000000Y-135690000D02*
X183000000Y-136380000D01*
X183000000Y-146310000D02*
X183000000Y-145620000D01*
X184720000Y-136380000D02*
X181280000Y-136380000D01*
X181280000Y-145620000D01*
X184720000Y-145620000D01*
X184720000Y-136380000D01*
%TO.C,J2*%
X176847500Y-64130000D02*
X184887500Y-64130000D01*
X176847500Y-74870000D02*
X176847500Y-64130000D01*
X180467500Y-64938000D02*
X180467500Y-64130000D01*
X180467500Y-69870000D02*
X180467500Y-68562000D01*
X180467500Y-74870000D02*
X180467500Y-73630000D01*
X181467500Y-64938000D02*
X181467500Y-64130000D01*
X181467500Y-69870000D02*
X181467500Y-68562000D01*
X181467500Y-74870000D02*
X181467500Y-73630000D01*
X182767500Y-66207000D02*
X182767500Y-64130000D01*
X182767500Y-69870000D02*
X182767500Y-67293000D01*
X182767500Y-74870000D02*
X182767500Y-73630000D01*
X184887500Y-64130000D02*
X184887500Y-71450000D01*
X184887500Y-72050000D02*
X184887500Y-74870000D01*
X184887500Y-74870000D02*
X176847500Y-74870000D01*
X185497500Y-72190000D02*
X184887500Y-71750000D01*
X185497500Y-71310000D01*
X185497500Y-72190000D01*
G36*
X185497500Y-72190000D02*
G01*
X184887500Y-71750000D01*
X185497500Y-71310000D01*
X185497500Y-72190000D01*
G37*
%TO.C,R1*%
X154500000Y-64190000D02*
X154500000Y-64880000D01*
X154500000Y-74810000D02*
X154500000Y-74120000D01*
X152780000Y-74120000D02*
X156220000Y-74120000D01*
X156220000Y-64880000D01*
X152780000Y-64880000D01*
X152780000Y-74120000D01*
%TO.C,R9*%
X177500000Y-135690000D02*
X177500000Y-136380000D01*
X177500000Y-146310000D02*
X177500000Y-145620000D01*
X179220000Y-136380000D02*
X175780000Y-136380000D01*
X175780000Y-145620000D01*
X179220000Y-145620000D01*
X179220000Y-136380000D01*
%TO.C,D4*%
X151045000Y-54170000D02*
X147955000Y-54170000D01*
X149500000Y-59720000D02*
G75*
G02*
X147955170Y-54170000I0J2990000D01*
G01*
X151044830Y-54170000D02*
G75*
G02*
X149500000Y-59720000I-1544830J-2560000D01*
G01*
X152000000Y-56730000D02*
G75*
G02*
X147000000Y-56730000I-2500000J0D01*
G01*
X147000000Y-56730000D02*
G75*
G02*
X152000000Y-56730000I2500000J0D01*
G01*
%TO.C,JP23*%
X111730000Y-108000000D02*
X117270000Y-108000000D01*
X111730000Y-111000000D02*
X111730000Y-108000000D01*
X114500000Y-108000000D02*
X114500000Y-111000000D01*
X117270000Y-108000000D02*
X117270000Y-111000000D01*
X117270000Y-111000000D02*
X111730000Y-111000000D01*
%TO.C,JP13*%
X105730000Y-130000000D02*
X111270000Y-130000000D01*
X105730000Y-133000000D02*
X105730000Y-130000000D01*
X108500000Y-130000000D02*
X108500000Y-133000000D01*
X111270000Y-130000000D02*
X111270000Y-133000000D01*
X111270000Y-133000000D02*
X105730000Y-133000000D01*
%TO.C,JP22*%
X111730000Y-111000000D02*
X117270000Y-111000000D01*
X111730000Y-114000000D02*
X111730000Y-111000000D01*
X114500000Y-111000000D02*
X114500000Y-114000000D01*
X117270000Y-111000000D02*
X117270000Y-114000000D01*
X117270000Y-114000000D02*
X111730000Y-114000000D01*
%TO.C,SW1*%
X134380000Y-57100000D02*
X134380000Y-54900000D01*
X135000000Y-52880000D02*
X140000000Y-52880000D01*
X135000000Y-59120000D02*
X140000000Y-59120000D01*
X140620000Y-54900000D02*
X140620000Y-57100000D01*
X139250000Y-56000000D02*
G75*
G02*
X135750000Y-56000000I-1750000J0D01*
G01*
X135750000Y-56000000D02*
G75*
G02*
X139250000Y-56000000I1750000J0D01*
G01*
%TO.C,R2*%
X164690000Y-80500000D02*
X165380000Y-80500000D01*
X175310000Y-80500000D02*
X174620000Y-80500000D01*
X165380000Y-78780000D02*
X174620000Y-78780000D01*
X174620000Y-82220000D01*
X165380000Y-82220000D01*
X165380000Y-78780000D01*
%TO.C,U7*%
X151000000Y-106920000D02*
X154000000Y-106920000D01*
X151000000Y-117310000D02*
X154000000Y-117310000D01*
X151000000Y-120080000D02*
X151000000Y-106920000D01*
X154000000Y-106920000D02*
X154000000Y-120080000D01*
X154000000Y-120080000D02*
X151000000Y-120080000D01*
%TO.C,JP24*%
X106730000Y-114000000D02*
X112270000Y-114000000D01*
X106730000Y-117000000D02*
X106730000Y-114000000D01*
X109500000Y-114000000D02*
X109500000Y-117000000D01*
X112270000Y-114000000D02*
X112270000Y-117000000D01*
X112270000Y-117000000D02*
X106730000Y-117000000D01*
%TO.C,U3*%
X93170000Y-104457500D02*
X111210000Y-104457500D01*
X93170000Y-113577500D02*
X93170000Y-104457500D01*
X94470000Y-105767500D02*
X100140000Y-105767500D01*
X94470000Y-112267500D02*
X94470000Y-105767500D01*
X100140000Y-105767500D02*
X100140000Y-104457500D01*
X104240000Y-104457500D02*
X104240000Y-105767500D01*
X104240000Y-105767500D02*
X109910000Y-105767500D01*
X105500000Y-103067500D02*
X106000000Y-104067500D01*
X106000000Y-104067500D02*
X106500000Y-103067500D01*
X106500000Y-103067500D02*
X105500000Y-103067500D01*
X109910000Y-105767500D02*
X109910000Y-112267500D01*
X109910000Y-112267500D02*
X94470000Y-112267500D01*
X111210000Y-104457500D02*
X111210000Y-113577500D01*
X111210000Y-113577500D02*
X93170000Y-113577500D01*
%TO.C,JP18*%
X90730000Y-117000000D02*
X96270000Y-117000000D01*
X90730000Y-120000000D02*
X90730000Y-117000000D01*
X93500000Y-117000000D02*
X93500000Y-120000000D01*
X96270000Y-117000000D02*
X96270000Y-120000000D01*
X96270000Y-120000000D02*
X90730000Y-120000000D01*
%TO.C,R10*%
X167000000Y-64690000D02*
X167000000Y-65380000D01*
X167000000Y-75310000D02*
X167000000Y-74620000D01*
X165280000Y-74620000D02*
X168720000Y-74620000D01*
X168720000Y-65380000D01*
X165280000Y-65380000D01*
X165280000Y-74620000D01*
%TO.C,J4*%
X156380000Y-53580000D02*
X163700000Y-53580000D01*
X156380000Y-61620000D02*
X156380000Y-53580000D01*
X157188000Y-57000000D02*
X156380000Y-57000000D01*
X157188000Y-58000000D02*
X156380000Y-58000000D01*
X158457000Y-55700000D02*
X156380000Y-55700000D01*
X162120000Y-55700000D02*
X159543000Y-55700000D01*
X162120000Y-57000000D02*
X160812000Y-57000000D01*
X162120000Y-58000000D02*
X160812000Y-58000000D01*
X164300000Y-53580000D02*
X167120000Y-53580000D01*
X167120000Y-53580000D02*
X167120000Y-61620000D01*
X167120000Y-55700000D02*
X165880000Y-55700000D01*
X167120000Y-57000000D02*
X165880000Y-57000000D01*
X167120000Y-58000000D02*
X165880000Y-58000000D01*
X167120000Y-61620000D02*
X156380000Y-61620000D01*
X164000000Y-53580000D02*
X163560000Y-52970000D01*
X164440000Y-52970000D01*
X164000000Y-53580000D01*
G36*
X164000000Y-53580000D02*
G01*
X163560000Y-52970000D01*
X164440000Y-52970000D01*
X164000000Y-53580000D01*
G37*
%TO.C,TP1*%
X127730000Y-136500000D02*
X133270000Y-136500000D01*
X127730000Y-139500000D02*
X127730000Y-136500000D01*
X130500000Y-139500000D02*
X130500000Y-136500000D01*
X133270000Y-136500000D02*
X133270000Y-139500000D01*
X133270000Y-139500000D02*
X127730000Y-139500000D01*
%TO.C,JP2*%
X102000000Y-93730000D02*
X105000000Y-93730000D01*
X102000000Y-99270000D02*
X102000000Y-93730000D01*
X105000000Y-93730000D02*
X105000000Y-99270000D01*
X105000000Y-96500000D02*
X102000000Y-96500000D01*
X105000000Y-99270000D02*
X102000000Y-99270000D01*
%TO.C,JP9*%
X107730000Y-146500000D02*
X113270000Y-146500000D01*
X107730000Y-149500000D02*
X107730000Y-146500000D01*
X110500000Y-146500000D02*
X110500000Y-149500000D01*
X113270000Y-146500000D02*
X113270000Y-149500000D01*
X113270000Y-149500000D02*
X107730000Y-149500000D01*
%TO.C,R7*%
X184000000Y-116540000D02*
X184000000Y-117230000D01*
X184000000Y-127160000D02*
X184000000Y-126470000D01*
X185720000Y-117230000D02*
X182280000Y-117230000D01*
X182280000Y-126470000D01*
X185720000Y-126470000D01*
X185720000Y-117230000D01*
%TO.C,U2*%
X124380000Y-132790000D02*
X131126667Y-132790000D01*
X124380001Y-61210000D02*
X124380000Y-132790000D01*
X131126667Y-132430000D02*
X137873333Y-132430000D01*
X131126667Y-132790000D02*
X131126667Y-132430000D01*
X137873333Y-132430000D02*
X137873333Y-132790000D01*
X137873333Y-132790000D02*
X144619999Y-132790000D01*
X144619999Y-132790000D02*
X144620000Y-61210000D01*
X144620000Y-61210000D02*
X124380001Y-61210000D01*
%TO.C,JP17*%
X96230000Y-130000000D02*
X101770000Y-130000000D01*
X96230000Y-133000000D02*
X96230000Y-130000000D01*
X99000000Y-133000000D02*
X99000000Y-130000000D01*
X101770000Y-130000000D02*
X101770000Y-133000000D01*
X101770000Y-133000000D02*
X96230000Y-133000000D01*
%TO.C,J1*%
X91900000Y-57150000D02*
X106500000Y-57150000D01*
X91900000Y-66350000D02*
X91900000Y-57150000D01*
X100900000Y-66350000D02*
X91900000Y-66350000D01*
X105000000Y-56910000D02*
X106740000Y-56910000D01*
X106500000Y-57150000D02*
X106500000Y-59950000D01*
X106500000Y-63550000D02*
X106500000Y-66350000D01*
X106500000Y-66350000D02*
X104500000Y-66350000D01*
X106740000Y-56910000D02*
X106740000Y-58650000D01*
%TO.C,U1*%
X111600000Y-69060000D02*
X114400000Y-69060000D01*
X111600000Y-74270000D02*
X114400000Y-74270000D01*
X111600000Y-76940000D02*
X111600000Y-69060000D01*
X114400000Y-69060000D02*
X114400000Y-76940000D01*
X114400000Y-76940000D02*
X111600000Y-76940000D01*
%TO.C,JP28*%
X111730000Y-105000000D02*
X117270000Y-105000000D01*
X111730000Y-108000000D02*
X111730000Y-105000000D01*
X114500000Y-108000000D02*
X114500000Y-105000000D01*
X117270000Y-105000000D02*
X117270000Y-108000000D01*
X117270000Y-108000000D02*
X111730000Y-108000000D01*
%TO.C,JP8*%
X105000000Y-79730000D02*
X108000000Y-79730000D01*
X105000000Y-82500000D02*
X108000000Y-82500000D01*
X105000000Y-85270000D02*
X105000000Y-79730000D01*
X108000000Y-79730000D02*
X108000000Y-85270000D01*
X108000000Y-85270000D02*
X105000000Y-85270000D01*
%TO.C,JP5*%
X117500000Y-141730000D02*
X120500000Y-141730000D01*
X117500000Y-144500000D02*
X120500000Y-144500000D01*
X117500000Y-147270000D02*
X117500000Y-141730000D01*
X120500000Y-141730000D02*
X120500000Y-147270000D01*
X120500000Y-147270000D02*
X117500000Y-147270000D01*
%TO.C,JP12*%
X101230000Y-146500000D02*
X106770000Y-146500000D01*
X101230000Y-149500000D02*
X101230000Y-146500000D01*
X104000000Y-146500000D02*
X104000000Y-149500000D01*
X106770000Y-146500000D02*
X106770000Y-149500000D01*
X106770000Y-149500000D02*
X101230000Y-149500000D01*
%TO.C,JP11*%
X112230000Y-133000000D02*
X117770000Y-133000000D01*
X112230000Y-136000000D02*
X112230000Y-133000000D01*
X115000000Y-136000000D02*
X115000000Y-133000000D01*
X117770000Y-133000000D02*
X117770000Y-136000000D01*
X117770000Y-136000000D02*
X112230000Y-136000000D01*
%TO.C,R6*%
X170500000Y-135690000D02*
X170500000Y-136380000D01*
X170500000Y-146310000D02*
X170500000Y-145620000D01*
X168780000Y-145620000D02*
X172220000Y-145620000D01*
X172220000Y-136380000D01*
X168780000Y-136380000D01*
X168780000Y-145620000D01*
%TO.C,U6*%
X146480000Y-134650000D02*
X146480000Y-148349999D01*
X146480000Y-148349999D02*
X164520000Y-148350000D01*
X164160000Y-139216667D02*
X164520000Y-139216667D01*
X164160000Y-143783333D02*
X164160000Y-139216667D01*
X164520000Y-134650001D02*
X146480000Y-134650000D01*
X164520000Y-139216667D02*
X164520000Y-134650001D01*
X164520000Y-143783333D02*
X164160000Y-143783333D01*
X164520000Y-148350000D02*
X164520000Y-143783333D01*
%TO.C,JP16*%
X111730000Y-125500000D02*
X117270000Y-125500000D01*
X111730000Y-128500000D02*
X111730000Y-125500000D01*
X114500000Y-125500000D02*
X114500000Y-128500000D01*
X117270000Y-125500000D02*
X117270000Y-128500000D01*
X117270000Y-128500000D02*
X111730000Y-128500000D01*
%TO.C,TP3*%
X104230000Y-90000000D02*
X109770000Y-90000000D01*
X104230000Y-93000000D02*
X104230000Y-90000000D01*
X107000000Y-90000000D02*
X107000000Y-93000000D01*
X109770000Y-90000000D02*
X109770000Y-93000000D01*
X109770000Y-93000000D02*
X104230000Y-93000000D01*
%TO.C,JP25*%
X90730000Y-100500000D02*
X96270000Y-100500000D01*
X90730000Y-103500000D02*
X90730000Y-100500000D01*
X93500000Y-100500000D02*
X93500000Y-103500000D01*
X96270000Y-100500000D02*
X96270000Y-103500000D01*
X96270000Y-103500000D02*
X90730000Y-103500000D01*
%TO.C,C3*%
X123330000Y-143780000D02*
X128670000Y-143780000D01*
X123330000Y-144474000D02*
X123330000Y-143780000D01*
X123330000Y-147220000D02*
X123330000Y-146526000D01*
X128670000Y-143780000D02*
X128670000Y-144474000D01*
X128670000Y-146526000D02*
X128670000Y-147220000D01*
X128670000Y-147220000D02*
X123330000Y-147220000D01*
%TO.C,R4*%
X149000000Y-120690000D02*
X149000000Y-121380000D01*
X149000000Y-131310000D02*
X149000000Y-130620000D01*
X150720000Y-121380000D02*
X147280000Y-121380000D01*
X147280000Y-130620000D01*
X150720000Y-130620000D01*
X150720000Y-121380000D01*
%TO.C,JP7*%
X154000000Y-128230000D02*
X157000000Y-128230000D01*
X154000000Y-131000000D02*
X157000000Y-131000000D01*
X154000000Y-133770000D02*
X154000000Y-128230000D01*
X157000000Y-128230000D02*
X157000000Y-133770000D01*
X157000000Y-133770000D02*
X154000000Y-133770000D01*
%TO.C,JP21*%
X111730000Y-122000000D02*
X117270000Y-122000000D01*
X111730000Y-125000000D02*
X111730000Y-122000000D01*
X114500000Y-125000000D02*
X114500000Y-122000000D01*
X117270000Y-122000000D02*
X117270000Y-125000000D01*
X117270000Y-125000000D02*
X111730000Y-125000000D01*
%TO.C,JP26*%
X97730000Y-101000000D02*
X103270000Y-101000000D01*
X97730000Y-104000000D02*
X97730000Y-101000000D01*
X100500000Y-101000000D02*
X100500000Y-104000000D01*
X103270000Y-101000000D02*
X103270000Y-104000000D01*
X103270000Y-104000000D02*
X97730000Y-104000000D01*
%TO.C,TP5*%
X174230000Y-128000000D02*
X179770000Y-128000000D01*
X174230000Y-131000000D02*
X174230000Y-128000000D01*
X177000000Y-128000000D02*
X177000000Y-131000000D01*
X179770000Y-128000000D02*
X179770000Y-131000000D01*
X179770000Y-131000000D02*
X174230000Y-131000000D01*
%TO.C,C1*%
X110280000Y-79830000D02*
X110974000Y-79830000D01*
X110280000Y-85170000D02*
X110280000Y-79830000D01*
X110974000Y-85170000D02*
X110280000Y-85170000D01*
X113026000Y-79830000D02*
X113720000Y-79830000D01*
X113720000Y-79830000D02*
X113720000Y-85170000D01*
X113720000Y-85170000D02*
X113026000Y-85170000D01*
%TO.C,J3*%
X172630000Y-53612500D02*
X179950000Y-53612500D01*
X172630000Y-61652500D02*
X172630000Y-53612500D01*
X173438000Y-57032500D02*
X172630000Y-57032500D01*
X173438000Y-58032500D02*
X172630000Y-58032500D01*
X174707000Y-55732500D02*
X172630000Y-55732500D01*
X178370000Y-55732500D02*
X175793000Y-55732500D01*
X178370000Y-57032500D02*
X177062000Y-57032500D01*
X178370000Y-58032500D02*
X177062000Y-58032500D01*
X180550000Y-53612500D02*
X183370000Y-53612500D01*
X183370000Y-53612500D02*
X183370000Y-61652500D01*
X183370000Y-55732500D02*
X182130000Y-55732500D01*
X183370000Y-57032500D02*
X182130000Y-57032500D01*
X183370000Y-58032500D02*
X182130000Y-58032500D01*
X183370000Y-61652500D02*
X172630000Y-61652500D01*
X180250000Y-53612500D02*
X179810000Y-53002500D01*
X180690000Y-53002500D01*
X180250000Y-53612500D01*
G36*
X180250000Y-53612500D02*
G01*
X179810000Y-53002500D01*
X180690000Y-53002500D01*
X180250000Y-53612500D01*
G37*
%TO.C,F2*%
X92090000Y-69890000D02*
X92090000Y-92610000D01*
X92090000Y-69890000D02*
X95250000Y-69890000D01*
X92090000Y-92610000D02*
X95250000Y-92610000D01*
X98750000Y-69890000D02*
X101910000Y-69890000D01*
X98750000Y-92610000D02*
X101910000Y-92610000D01*
X101910000Y-69890000D02*
X101910000Y-92610000D01*
%TO.C,R14*%
X121000000Y-66190000D02*
X121000000Y-66880000D01*
X121000000Y-76810000D02*
X121000000Y-76120000D01*
X122720000Y-66880000D02*
X119280000Y-66880000D01*
X119280000Y-76120000D01*
X122720000Y-76120000D01*
X122720000Y-66880000D01*
%TO.C,JP15*%
X91500000Y-130730000D02*
X94500000Y-130730000D01*
X91500000Y-136270000D02*
X91500000Y-130730000D01*
X94500000Y-130730000D02*
X94500000Y-136270000D01*
X94500000Y-133500000D02*
X91500000Y-133500000D01*
X94500000Y-136270000D02*
X91500000Y-136270000D01*
%TO.C,C4*%
X179830000Y-110280000D02*
X185170000Y-110280000D01*
X179830000Y-110974000D02*
X179830000Y-110280000D01*
X179830000Y-113720000D02*
X179830000Y-113026000D01*
X185170000Y-110280000D02*
X185170000Y-110974000D01*
X185170000Y-113026000D02*
X185170000Y-113720000D01*
X185170000Y-113720000D02*
X179830000Y-113720000D01*
%TO.C,D1*%
X177847500Y-78130000D02*
X185887500Y-78130000D01*
X177847500Y-88870000D02*
X177847500Y-78130000D01*
X181467500Y-78938000D02*
X181467500Y-78130000D01*
X181467500Y-83870000D02*
X181467500Y-82562000D01*
X181467500Y-88870000D02*
X181467500Y-87630000D01*
X182467500Y-78938000D02*
X182467500Y-78130000D01*
X182467500Y-83870000D02*
X182467500Y-82562000D01*
X182467500Y-88870000D02*
X182467500Y-87630000D01*
X183767500Y-80207000D02*
X183767500Y-78130000D01*
X183767500Y-83870000D02*
X183767500Y-81293000D01*
X183767500Y-88870000D02*
X183767500Y-87630000D01*
X185887500Y-78130000D02*
X185887500Y-85450000D01*
X185887500Y-86050000D02*
X185887500Y-88870000D01*
X185887500Y-88870000D02*
X177847500Y-88870000D01*
X186497500Y-86190000D02*
X185887500Y-85750000D01*
X186497500Y-85310000D01*
X186497500Y-86190000D01*
G36*
X186497500Y-86190000D02*
G01*
X185887500Y-85750000D01*
X186497500Y-85310000D01*
X186497500Y-86190000D01*
G37*
%TO.C,JP27*%
X103730000Y-101000000D02*
X109270000Y-101000000D01*
X103730000Y-104000000D02*
X103730000Y-101000000D01*
X106500000Y-104000000D02*
X106500000Y-101000000D01*
X109270000Y-101000000D02*
X109270000Y-104000000D01*
X109270000Y-104000000D02*
X103730000Y-104000000D01*
%TO.C,U5*%
X93670000Y-136710000D02*
X111710000Y-136710000D01*
X93670000Y-145830000D02*
X93670000Y-136710000D01*
X94970000Y-138020000D02*
X100640000Y-138020000D01*
X94970000Y-144520000D02*
X94970000Y-138020000D01*
X100640000Y-138020000D02*
X100640000Y-136710000D01*
X104740000Y-136710000D02*
X104740000Y-138020000D01*
X104740000Y-138020000D02*
X110410000Y-138020000D01*
X106000000Y-135320000D02*
X106500000Y-136320000D01*
X106500000Y-136320000D02*
X107000000Y-135320000D01*
X107000000Y-135320000D02*
X106000000Y-135320000D01*
X110410000Y-138020000D02*
X110410000Y-144520000D01*
X110410000Y-144520000D02*
X94970000Y-144520000D01*
X111710000Y-136710000D02*
X111710000Y-145830000D01*
X111710000Y-145830000D02*
X93670000Y-145830000D01*
%TO.C,C5*%
X125830000Y-57280000D02*
X131170000Y-57280000D01*
X125830000Y-57974000D02*
X125830000Y-57280000D01*
X125830000Y-60720000D02*
X125830000Y-60026000D01*
X131170000Y-57280000D02*
X131170000Y-57974000D01*
X131170000Y-60026000D02*
X131170000Y-60720000D01*
X131170000Y-60720000D02*
X125830000Y-60720000D01*
%TO.C,R5*%
X132690000Y-143500000D02*
X133380000Y-143500000D01*
X143310000Y-143500000D02*
X142620000Y-143500000D01*
X133380000Y-141780000D02*
X142620000Y-141780000D01*
X142620000Y-145220000D01*
X133380000Y-145220000D01*
X133380000Y-141780000D01*
%TO.C,JP3*%
X109500000Y-62230000D02*
X112500000Y-62230000D01*
X109500000Y-65000000D02*
X112500000Y-65000000D01*
X109500000Y-67770000D02*
X109500000Y-62230000D01*
X112500000Y-62230000D02*
X112500000Y-67770000D01*
X112500000Y-67770000D02*
X109500000Y-67770000D01*
%TO.C,U8*%
X157000000Y-106960000D02*
X160000000Y-106960000D01*
X157000000Y-117350000D02*
X160000000Y-117350000D01*
X157000000Y-120120000D02*
X157000000Y-106960000D01*
X160000000Y-106960000D02*
X160000000Y-120120000D01*
X160000000Y-120120000D02*
X157000000Y-120120000D01*
%TO.C,R11*%
X161000000Y-65690000D02*
X161000000Y-66380000D01*
X161000000Y-76310000D02*
X161000000Y-75620000D01*
X159280000Y-75620000D02*
X162720000Y-75620000D01*
X162720000Y-66380000D01*
X159280000Y-66380000D01*
X159280000Y-75620000D01*
%TO.C,JP4*%
X105000000Y-71230000D02*
X108000000Y-71230000D01*
X105000000Y-74000000D02*
X108000000Y-74000000D01*
X105000000Y-76770000D02*
X105000000Y-71230000D01*
X108000000Y-71230000D02*
X108000000Y-76770000D01*
X108000000Y-76770000D02*
X105000000Y-76770000D01*
%TO.C,TP4*%
X160230000Y-85500000D02*
X165770000Y-85500000D01*
X160230000Y-88500000D02*
X160230000Y-85500000D01*
X163000000Y-85500000D02*
X163000000Y-88500000D01*
X165770000Y-85500000D02*
X165770000Y-88500000D01*
X165770000Y-88500000D02*
X160230000Y-88500000D01*
%TO.C,R3*%
X168500000Y-116190000D02*
X168500000Y-116880000D01*
X168500000Y-126810000D02*
X168500000Y-126120000D01*
X170220000Y-116880000D02*
X166780000Y-116880000D01*
X166780000Y-126120000D01*
X170220000Y-126120000D01*
X170220000Y-116880000D01*
%TO.C,TP6*%
X171730000Y-109500000D02*
X177270000Y-109500000D01*
X171730000Y-112500000D02*
X171730000Y-109500000D01*
X174500000Y-109500000D02*
X174500000Y-112500000D01*
X177270000Y-109500000D02*
X177270000Y-112500000D01*
X177270000Y-112500000D02*
X171730000Y-112500000D01*
%TO.C,R13*%
X117690000Y-55000000D02*
X118380000Y-55000000D01*
X128310000Y-55000000D02*
X127620000Y-55000000D01*
X127620000Y-56720000D02*
X118380000Y-56720000D01*
X118380000Y-53280000D01*
X127620000Y-53280000D01*
X127620000Y-56720000D01*
%TO.C,JP19*%
X97730000Y-117000000D02*
X103270000Y-117000000D01*
X97730000Y-120000000D02*
X97730000Y-117000000D01*
X100500000Y-117000000D02*
X100500000Y-120000000D01*
X103270000Y-117000000D02*
X103270000Y-120000000D01*
X103270000Y-120000000D02*
X97730000Y-120000000D01*
%TO.C,RV1*%
X149080000Y-100620000D02*
X149080000Y-94380000D01*
X159080000Y-94380000D02*
X149080000Y-94380000D01*
X159080000Y-100620000D02*
X149080000Y-100620000D01*
X159080000Y-101120000D02*
X159080000Y-93880000D01*
X164080000Y-93880000D02*
X159080000Y-93880000D01*
X164080000Y-101120000D02*
X159080000Y-101120000D01*
X164080000Y-106570000D02*
X164080000Y-88430000D01*
X174820000Y-88430000D02*
X164080000Y-88430000D01*
X174820000Y-106570000D02*
X164080000Y-106570000D01*
X174820000Y-106570000D02*
X174820000Y-88430000D01*
%TO.C,JP6*%
X120000000Y-132230000D02*
X123000000Y-132230000D01*
X120000000Y-137770000D02*
X120000000Y-132230000D01*
X123000000Y-132230000D02*
X123000000Y-137770000D01*
X123000000Y-135000000D02*
X120000000Y-135000000D01*
X123000000Y-137770000D02*
X120000000Y-137770000D01*
%TO.C,JP14*%
X95730000Y-133500000D02*
X101270000Y-133500000D01*
X95730000Y-136500000D02*
X95730000Y-133500000D01*
X98500000Y-136500000D02*
X98500000Y-133500000D01*
X101270000Y-133500000D02*
X101270000Y-136500000D01*
X101270000Y-136500000D02*
X95730000Y-136500000D01*
%TO.C,JP10*%
X112230000Y-135500000D02*
X117770000Y-135500000D01*
X112230000Y-138500000D02*
X112230000Y-135500000D01*
X115000000Y-138500000D02*
X115000000Y-135500000D01*
X117770000Y-135500000D02*
X117770000Y-138500000D01*
X117770000Y-138500000D02*
X112230000Y-138500000D01*
%TD*%
M02*
